<svg width="294" height="158" viewBox="0 0 294 158" fill="none" xmlns="http://www.w3.org/2000/svg">
<mask id="mask0_335_440" style="mask-type:alpha" maskUnits="userSpaceOnUse" x="0" y="0" width="294" height="158">
<rect width="294" height="158" fill="#ED1B24"/>
</mask>
<g mask="url(#mask0_335_440)">
<path d="M261.662 45.1916L261.949 44.5001L261.2 44.5001L180.2 44.5001L179.798 44.5001L179.712 44.8929L147.312 192.493L147.179 193.1L147.8 193.1L200 193.1L200.334 193.1L200.462 192.792L261.662 45.1916ZM145.862 45.1916L146.149 44.5001L145.4 44.5001L65.0002 44.5001L64.5996 44.5001L64.5123 44.891L31.5122 192.491L31.3761 193.1L32.0002 193.1L84.2002 193.1L84.5341 193.1L84.6621 192.792L145.862 45.1916Z" stroke="white"/>
</g>
</svg>
