<svg width="42" height="42" viewBox="0 0 42 42" fill="none" xmlns="http://www.w3.org/2000/svg">
<path d="M41.0052 1.81816C40.9927 1.60409 40.902 1.40207 40.7504 1.25045C40.5988 1.09883 40.3967 1.00816 40.1827 0.995656C23.8574 0.0353436 10.8199 4.89816 5.30299 14.0003C1.53174 20.2478 1.72861 27.6438 5.86299 34.8997L1.13142 39.6313C0.967238 39.7955 0.875 40.0182 0.875 40.2503C0.875 40.4825 0.967238 40.7052 1.13142 40.8694C1.29561 41.0336 1.51829 41.1258 1.75049 41.1258C1.98268 41.1258 2.20536 41.0336 2.36955 40.8694L7.10111 36.1357C10.9052 38.3035 14.7574 39.3928 18.4389 39.3928C21.814 39.3959 25.1238 38.463 28.0005 36.6978C37.1027 31.181 41.9655 18.1413 41.0052 1.81816ZM27.0861 35.2016C21.5364 38.5638 14.9324 38.4282 8.38736 34.8494L28.6217 14.6172C28.7859 14.453 28.8782 14.2304 28.8782 13.9982C28.8782 13.766 28.7859 13.5433 28.6217 13.3791C28.4576 13.2149 28.2349 13.1227 28.0027 13.1227C27.7705 13.1227 27.5478 13.2149 27.3836 13.3791L7.15142 33.6135C3.57267 27.0685 3.43267 20.4644 6.79924 14.9147C11.8874 6.51253 24.0017 1.96909 39.3011 2.69972C40.0317 17.9991 35.4883 30.1135 27.0861 35.2016Z" fill="#ED1B24"/>
</svg>
