<svg width="56" height="56" viewBox="0 0 56 56" fill="none" xmlns="http://www.w3.org/2000/svg">
<path d="M48.0052 8.81767C47.9927 8.60361 47.902 8.40159 47.7504 8.24996C47.5988 8.09834 47.3967 8.00767 47.1827 7.99517C30.8574 7.03486 17.8199 11.8977 12.303 20.9999C8.53174 27.2474 8.72861 34.6433 12.863 41.8992L8.13142 46.6308C7.96724 46.795 7.875 47.0177 7.875 47.2499C7.875 47.4821 7.96724 47.7047 8.13142 47.8689C8.29561 48.0331 8.51829 48.1253 8.75049 48.1253C8.98268 48.1253 9.20536 48.0331 9.36955 47.8689L14.1011 43.1352C17.9052 45.303 21.7574 46.3924 25.4389 46.3924C28.814 46.3954 32.1238 45.4625 35.0005 43.6974C44.1027 38.1805 48.9655 25.1408 48.0052 8.81767ZM34.0861 42.2011C28.5364 45.5633 21.9324 45.4277 15.3874 41.8489L35.6217 21.6167C35.7859 21.4525 35.8782 21.2299 35.8782 20.9977C35.8782 20.7655 35.7859 20.5428 35.6217 20.3786C35.4576 20.2144 35.2349 20.1222 35.0027 20.1222C34.7705 20.1222 34.5478 20.2144 34.3836 20.3786L14.1514 40.613C10.5727 34.068 10.4327 27.4639 13.7992 21.9142C18.8874 13.512 31.0017 8.96861 46.3011 9.69923C47.0317 24.9986 42.4883 37.113 34.0861 42.2011Z" fill="#ED1B24"/>
</svg>
