<svg width="40" height="40" viewBox="0 0 40 40" fill="none" xmlns="http://www.w3.org/2000/svg">
<path d="M8.38263 8.86135H8.38233L8.38292 8.87072L8.38303 8.87252L8.38307 8.87308C8.38487 8.90024 8.38974 8.95992 8.40224 9.04757L8.40225 9.04763C8.42734 9.22302 8.48235 9.50704 8.60136 9.86443L8.60137 9.86448C8.83725 10.572 9.33052 11.5864 10.3805 12.6364L14.4782 16.7342L2.82623 28.3862L2.72016 28.4923L2.82623 28.5983L4.12066 29.8928L4.18959 29.9617L4.28057 29.9267L20.984 23.5022L30.2168 30.4268L30.4268 30.2168L23.5022 20.984L29.9267 4.28057L29.9617 4.18959L29.8928 4.12066L28.5983 2.82623L28.4923 2.72016L28.3862 2.82623L16.7342 14.4782L12.6364 10.3805C11.5864 9.33052 10.572 8.83725 9.86448 8.60137L9.86443 8.60136C9.50704 8.48235 9.22302 8.42734 9.04763 8.40225L9.04757 8.40224C8.95992 8.38974 8.90024 8.38487 8.87308 8.38307L8.87252 8.38303L8.87072 8.38292L8.87074 8.38263H8.86135H8.53263H8.38263V8.53263V8.86135ZM8.78937 6.17656L8.53331 6.43263H8.89526H8.89531H8.89536H8.89537H8.8954H8.89544L8.89638 6.43263L8.90167 6.4327L8.925 6.43333C8.94613 6.43407 8.97825 6.43557 9.02057 6.43862C9.10522 6.44473 9.23063 6.45705 9.39042 6.48191C9.82663 6.54983 10.5186 6.71114 11.3382 7.09418C12.1467 7.47224 13.0802 8.06646 14.0152 9.0015L16.6281 11.6144L16.7342 11.7205L16.8403 11.6144L27.0074 1.44738L26.9013 1.34131L27.0074 1.44737C27.8274 0.627275 29.1571 0.627275 29.9772 1.44737L30.0832 1.34131L29.9772 1.44738L31.2716 2.7418C31.8584 3.32862 32.0446 4.206 31.7467 4.9806L25.7393 20.5998L25.7095 20.6772L25.7593 20.7436L33.5981 31.1952L33.6732 31.2953L33.7852 31.2393L38.3187 28.9725C38.6744 28.7947 39.1039 28.8644 39.385 29.1455L39.385 29.1455C39.7458 29.5062 39.7458 30.0911 39.385 30.4519L30.4519 39.385C30.0911 39.7458 29.5062 39.7458 29.1455 39.385L29.1455 39.385C28.8644 39.1039 28.7947 38.6744 28.9725 38.3187L31.2393 33.7852L31.2953 33.6732L31.1952 33.5981L20.7436 25.7593L20.6772 25.7095L20.5998 25.7393L4.98059 31.7467C4.20599 32.0446 3.32862 31.8584 2.7418 31.2716L1.44738 29.9772L1.34131 30.0832L1.44737 29.9772C0.627275 29.1571 0.627275 27.8274 1.44737 27.0074L1.34131 26.9013L1.44738 27.0074L11.6144 16.8403L11.7205 16.7342L11.6144 16.6281L9.0015 14.0152C8.06646 13.0802 7.47224 12.1467 7.09418 11.3382C6.71114 10.5186 6.54983 9.82663 6.48191 9.39042C6.45705 9.23063 6.44473 9.10522 6.43862 9.02057C6.43557 8.97825 6.43407 8.94613 6.43333 8.925L6.4327 8.90167L6.43263 8.89638L6.43263 8.89544V8.8954V8.89537V8.89536V8.89531V8.89526V8.53331L6.17656 8.78937L2.25716 12.7088C1.63222 13.3337 1.07799 13.2771 0.836228 13.0354C0.594467 12.7936 0.5379 12.2394 1.16284 11.6144L11.6144 1.16284C12.2394 0.5379 12.7936 0.594467 13.0354 0.836228C13.2771 1.07799 13.3337 1.63222 12.7088 2.25716L8.78937 6.17656Z" fill="#ED1B24" stroke="#262626" stroke-width="0.3"/>
</svg>
