<svg width="54" height="54" viewBox="0 0 54 54" fill="none" xmlns="http://www.w3.org/2000/svg">
<path d="M19.8148 9.36274L19.7088 9.25667C20.3337 8.63173 20.2771 8.0775 20.0354 7.83574C19.7936 7.59398 19.2394 7.53741 18.6144 8.16235L8.16284 18.6139C7.5379 19.2389 7.59447 19.7931 7.83623 20.0349C8.07799 20.2766 8.63222 20.3332 9.25716 19.7083L9.36323 19.8143L9.25716 19.7083L13.1766 15.7889L13.4326 15.5328L13.4326 15.8948V15.8948L13.4326 15.8949L13.4326 15.8949V15.8949V15.8949L13.4326 15.8959L13.4327 15.9012L13.4333 15.9245C13.4341 15.9456 13.4356 15.9778 13.4386 16.0201L19.8148 9.36274ZM19.8148 9.36274L19.7088 9.25667L15.7894 13.1761L15.5333 13.4321M19.8148 9.36274L15.5333 13.4321M15.5333 13.4321L15.8953 13.4321M15.5333 13.4321L15.8953 13.4321M15.8953 13.4321H15.8953M15.8953 13.4321H15.8953M15.8953 13.4321L15.8954 13.4321M15.8953 13.4321L15.8954 13.4321M15.8954 13.4321L15.8954 13.4321M15.8954 13.4321L15.8954 13.4321M15.8954 13.4321H15.8954M15.8954 13.4321H15.8954M15.8954 13.4321H15.8954M15.8954 13.4321H15.8954M15.8954 13.4321L15.8964 13.4321L15.9017 13.4322L15.925 13.4328C15.9461 13.4336 15.9782 13.4351 16.0206 13.4381L15.8954 13.4321ZM23.7342 18.72L23.6281 18.6139L21.0152 16.001C20.0802 15.066 19.1467 14.4718 18.3382 14.0937C17.5186 13.7107 16.8266 13.5493 16.3904 13.4814L23.7342 18.72ZM23.7342 18.72L23.8403 18.6139M23.7342 18.72L23.8403 18.6139M23.8403 18.6139L34.0074 8.44689L33.9013 8.34082M23.8403 18.6139L33.9013 8.34082M33.9013 8.34082L34.0074 8.44688C34.8274 7.62679 36.1571 7.62679 36.9772 8.44688L37.0832 8.34082L36.9772 8.44689L38.2716 9.74131C38.8584 10.3281 39.0446 11.2055 38.7467 11.9801L32.7393 27.5993L32.7095 27.6767M33.9013 8.34082L32.7095 27.6767M32.7095 27.6767L32.7593 27.7431M32.7095 27.6767L32.7593 27.7431M32.7593 27.7431L40.5981 38.1947L40.6732 38.2948M32.7593 27.7431L40.6732 38.2948M40.6732 38.2948L40.7852 38.2389M40.6732 38.2948L40.7852 38.2389M40.7852 38.2389L45.3187 35.972C45.6744 35.7942 46.1039 35.8639 46.385 36.145L46.385 36.1451M40.7852 38.2389L46.385 36.1451M46.385 36.1451C46.7458 36.5058 46.7458 37.0906 46.385 37.4514L37.4519 46.3845C37.0911 46.7453 36.5062 46.7453 36.1455 46.3845L36.1455 46.3845M46.385 36.1451L36.1455 46.3845M36.1455 46.3845C35.8644 46.1035 35.7947 45.6739 35.9725 45.3182L38.2393 40.7847L38.2953 40.6727M36.1455 46.3845L38.2953 40.6727M38.2953 40.6727L38.1952 40.5976M38.2953 40.6727L38.1952 40.5976M38.1952 40.5976L27.7436 32.7589L27.6772 32.7091M38.1952 40.5976L27.6772 32.7091M27.6772 32.7091L27.5998 32.7388M27.6772 32.7091L27.5998 32.7388M27.5998 32.7388L11.9806 38.7462C11.206 39.0441 10.3286 38.858 9.7418 38.2711L8.44738 36.9767L8.34131 37.0828M27.5998 32.7388L8.34131 37.0828M8.34131 37.0828L8.44737 36.9767C7.62727 36.1566 7.62727 34.8269 8.44737 34.0069L8.34174 33.9012L8.44738 34.0069L18.6144 23.8398L18.7205 23.7337M8.34131 37.0828L18.7205 23.7337M18.7205 23.7337L18.6144 23.6277M18.7205 23.7337L18.6144 23.6277M18.6144 23.6277L16.0015 21.0147M18.6144 23.6277L16.0015 21.0147M16.0015 21.0147C15.0665 20.0797 14.4722 19.1462 14.0942 18.3377M16.0015 21.0147L14.0942 18.3377M14.0942 18.3377C13.7111 17.5181 13.5498 16.8262 13.4819 16.39L14.0942 18.3377ZM15.3826 15.8609H15.3823L15.3829 15.8702L15.383 15.872L15.3831 15.8726C15.3849 15.8998 15.3897 15.9594 15.4022 16.0471L15.4022 16.0471C15.4273 16.2225 15.4823 16.5066 15.6014 16.8639L15.6014 16.864C15.8373 17.5715 16.3305 18.586 17.3805 19.6359L21.4782 23.7337L9.82623 35.3857L9.72016 35.4918L9.82623 35.5978L11.1207 36.8923L11.1896 36.9612L11.2806 36.9262L27.984 30.5018L37.2168 37.4263L37.4268 37.2163L30.5022 27.9835L36.9267 11.2801L36.9617 11.1891L36.8928 11.1202L35.5983 9.82574L35.4923 9.71968L35.3862 9.82574L23.7342 21.4777L19.6364 17.38C18.5864 16.33 17.572 15.8368 16.8645 15.6009L16.8644 15.6009C16.507 15.4819 16.223 15.4269 16.0476 15.4018L16.0476 15.4018C15.9599 15.3892 15.9002 15.3844 15.8731 15.3826L15.8725 15.3825L15.8707 15.3824L15.8707 15.3821H15.8614H15.5326H15.3826V15.5321V15.8609Z" fill="#ED1B24" stroke="#262626" stroke-width="0.3"/>
</svg>
