<svg width="36" height="43" viewBox="0 0 36 43" fill="none" xmlns="http://www.w3.org/2000/svg">
<path d="M3.94475 25.6C2.40655 23.081 1.59556 20.1854 1.6016 17.2339C1.6016 8.26725 8.9447 1 18.0016 1C27.0585 1 34.4016 8.26725 34.4016 17.2339C34.4076 20.1854 33.5967 23.081 32.0584 25.6M24.1516 35.85L23.8851 37.1763C23.5981 38.6257 23.4525 39.3493 23.1266 39.9233C22.6243 40.808 21.8111 41.4744 20.8449 41.7929C20.2197 42 19.4776 42 18.0016 42C16.5256 42 15.7835 42 15.1582 41.795C14.1917 41.4759 13.3785 40.8088 12.8766 39.9233C12.5506 39.3493 12.4051 38.6257 12.1181 37.1763L11.8516 35.85M8.53675 31.9509C8.34815 31.3851 8.25385 31.1001 8.2641 30.8705C8.27569 30.6331 8.35583 30.4042 8.4948 30.2114C8.63378 30.0185 8.82564 29.8701 9.0472 29.7841C9.2604 29.7 9.5597 29.7 10.1542 29.7H25.849C26.4455 29.7 26.7428 29.7 26.956 29.782C27.1779 29.8682 27.3699 30.017 27.5089 30.2102C27.6479 30.4034 27.7279 30.6328 27.7391 30.8705C27.7493 31.1001 27.655 31.383 27.4664 31.9509C27.1179 32.9984 26.9437 33.5233 26.6751 33.9476C26.1134 34.8344 25.233 35.4721 24.2151 35.729C23.7272 35.85 23.1778 35.85 22.077 35.85H13.9262C12.8253 35.85 12.2739 35.85 11.788 35.727C10.7706 35.4705 9.89013 34.8337 9.32805 33.9476C9.0595 33.5233 8.88525 32.9984 8.53675 31.9509Z" stroke="#ED1B24" stroke-width="2" stroke-linecap="round" stroke-linejoin="round"/>
<path d="M18.6322 21.5003L15.6371 12.2322C15.5334 11.9401 15.3404 11.6881 15.0854 11.5118C14.8304 11.3356 14.5264 11.2441 14.2165 11.2503C13.9066 11.2441 13.6025 11.3356 13.3476 11.5118C13.0926 11.6881 12.8995 11.9401 12.7958 12.2322L9.80078 21.5003M24.1508 11.2503V21.5003M10.9037 18.4253H17.5272" stroke="#ED1B24" stroke-width="2" stroke-linecap="round" stroke-linejoin="round"/>
</svg>
