<svg width="82" height="82" viewBox="0 0 82 82" fill="none" xmlns="http://www.w3.org/2000/svg">
<path d="M32.6416 59.7314L32.6438 59.7518L32.648 59.7718C32.6822 59.9343 32.682 60.1022 32.6474 60.2646C32.6128 60.427 32.5446 60.5803 32.4471 60.7147C32.3496 60.8491 32.225 60.9616 32.0814 61.045C31.9378 61.1283 31.7783 61.1807 31.6132 61.1986C31.4482 61.2165 31.2811 61.1997 31.123 61.1492C30.9648 61.0986 30.819 61.0155 30.6949 60.9052C30.5708 60.7948 30.4712 60.6597 30.4025 60.5086C30.3338 60.3574 30.2976 60.1935 30.2961 60.0275L30.2959 60.0073L30.2937 59.9872C29.7527 55.0849 30.3106 50.9633 31.9276 47.648C33.5415 44.3393 36.2262 41.8007 40.0025 40.0839C40.003 40.0836 40.0036 40.0834 40.0041 40.0831L40.4599 39.8806C43.8647 38.422 46.3082 36.2255 47.7737 33.2593C49.2348 30.3018 49.7051 26.6172 49.24 22.2079C49.2196 21.9022 49.3164 21.6001 49.5108 21.363C49.7065 21.1244 49.9862 20.9699 50.2924 20.9313L50.4283 20.9141L50.4451 20.8973C50.7041 20.9088 50.9539 21.0036 51.1562 21.1695C51.3941 21.3646 51.5484 21.6432 51.5876 21.9482C52.1279 26.8491 51.57 30.9695 49.9533 34.2841C48.3394 37.5928 45.6547 40.1314 41.8785 41.8482C41.8779 41.8485 41.8774 41.8487 41.8768 41.849L41.4211 42.0515C38.0162 43.5101 35.5727 45.7066 34.1073 48.6728C32.6453 51.6319 32.1753 55.3189 32.6416 59.7314Z" fill="#ED1B24" stroke="#262626" stroke-width="0.8"/>
<path d="M45.3687 43.7383L45.4656 43.6258V43.6197C45.5445 43.5465 45.6334 43.4845 45.7299 43.4357C45.8674 43.3661 46.0175 43.3248 46.1712 43.3142C46.3249 43.3036 46.4792 43.3238 46.625 43.3737C46.7707 43.4236 46.905 43.5022 47.02 43.6048L47.0199 43.6049L47.0252 43.6094C50.1088 46.2689 51.6185 51.6365 51.6185 59.9115C51.6185 60.0654 51.5882 60.2177 51.5293 60.3599C51.4704 60.502 51.3841 60.6312 51.2753 60.74C51.1665 60.8488 51.0373 60.9351 50.8952 60.994C50.753 61.0528 50.6007 61.0832 50.4468 61.0832C50.2929 61.0832 50.1406 61.0528 49.9984 60.994C49.8563 60.9351 49.7271 60.8488 49.6183 60.74C49.5095 60.6312 49.4232 60.502 49.3643 60.3599C49.3054 60.2177 49.2751 60.0654 49.2751 59.9115C49.2751 56.2012 48.9491 53.1197 48.3206 50.6991C47.6937 48.2848 46.7553 46.4877 45.4987 45.3962L45.4961 45.3939C45.3787 45.2937 45.2823 45.1714 45.2123 45.0339C45.1424 44.8964 45.1003 44.7464 45.0885 44.5925C45.0766 44.4387 45.0953 44.2841 45.1434 44.1375C45.1915 43.9909 45.268 43.8552 45.3687 43.7383ZM35.6464 38.8526L35.6429 38.8504C31.0535 35.9759 29.2843 30.3461 30.3857 22.0201L30.39 22.0116L30.418 21.9555L30.4276 21.8936C30.4749 21.5861 30.6424 21.31 30.8932 21.1261C31.1441 20.9421 31.4577 20.8654 31.7651 20.9127C32.0726 20.96 32.3487 21.1275 32.5326 21.3783C32.7166 21.6292 32.7933 21.9428 32.746 22.2502L32.7459 22.2502L32.7448 22.2587C31.7655 29.6813 33.1486 34.4765 36.9241 36.8618C37.1876 37.0311 37.3732 37.2981 37.4402 37.6041C37.5072 37.9106 37.4498 38.2311 37.2805 38.4952C37.1112 38.7593 36.8439 38.9453 36.5375 39.0124C36.231 39.0794 35.9105 39.0219 35.6464 38.8526ZM45.3147 24.0265V24.0336L45.7046 24.0434C45.998 24.0509 46.2779 24.1681 46.4889 24.372C46.7 24.5758 46.8269 24.8515 46.8445 25.1444C46.8621 25.4374 46.7692 25.7262 46.584 25.9539C46.4046 26.1746 46.1512 26.3222 45.8714 26.3698H36.2847H36.2847C35.9716 26.3698 35.6712 26.2464 35.4486 26.0262C35.2272 25.8071 35.1006 25.5099 35.096 25.1986C35.1009 24.9099 35.2093 24.6325 35.4015 24.4169C35.5895 24.206 35.8453 24.068 36.1243 24.0265H45.3147Z" fill="#ED1B24" stroke="#262626" stroke-width="0.8"/>
<path d="M45.7146 30.3301H45.7266L45.7385 30.3293C46.0495 30.3108 46.355 30.4164 46.588 30.6232C46.821 30.8299 46.9624 31.1207 46.981 31.4316C46.9996 31.7426 46.8939 32.0481 46.6872 32.2812C46.4829 32.5114 46.1965 32.6521 45.8897 32.6734H36.2846H36.2727L36.2608 32.6741C35.9498 32.6927 35.6443 32.587 35.4112 32.3803C35.1782 32.1736 35.0369 31.8827 35.0183 31.5718C34.9997 31.2609 35.1054 30.9553 35.3121 30.7223C35.5164 30.492 35.8028 30.3513 36.1095 30.3301H45.7146ZM45.7146 49.2413H46.0238C46.081 49.252 46.1373 49.2668 46.1925 49.2859C46.3383 49.3363 46.4727 49.415 46.588 49.5173C46.7034 49.6197 46.7975 49.7438 46.8649 49.8825C46.9323 50.0212 46.9718 50.1718 46.981 50.3258C46.9902 50.4798 46.969 50.634 46.9186 50.7798C46.8681 50.9255 46.7895 51.0599 46.6872 51.1753C46.5848 51.2907 46.4607 51.3848 46.322 51.4522C46.1866 51.518 46.0399 51.5572 45.8897 51.5676H36.2901C35.9984 51.559 35.7204 51.4419 35.5104 51.2391C35.2994 51.0353 35.1725 50.7596 35.1549 50.4667C35.1373 50.1738 35.2302 49.8849 35.4153 49.6572C35.5948 49.4365 35.8482 49.2889 36.128 49.2413H45.7146ZM45.3146 55.5109V55.518L45.7045 55.5278C45.9979 55.5353 46.2778 55.6525 46.4889 55.8564C46.6999 56.0602 46.8268 56.3359 46.8444 56.6288C46.862 56.9218 46.7691 57.2106 46.5839 57.4383C46.4045 57.659 46.1511 57.8066 45.8713 57.8542H36.2846C35.9715 57.8542 35.6711 57.7308 35.4485 57.5106C35.2271 57.2915 35.1005 56.9943 35.0959 56.683C35.1009 56.3943 35.2092 56.1169 35.4014 55.9013C35.5894 55.6904 35.8453 55.5524 36.1242 55.5109H45.3146Z" fill="#ED1B24" stroke="#262626" stroke-width="0.8"/>
</svg>
