<svg width="48" height="48" viewBox="0 0 48 48" fill="none" xmlns="http://www.w3.org/2000/svg">
<path d="M0.366375 13.2879L7.29347 17.0663C7.3184 17.0799 7.34413 17.092 7.37053 17.1024C7.37578 17.1045 7.38122 17.1063 7.38656 17.1082C7.40669 17.1157 7.42719 17.1223 7.44806 17.1279C7.45519 17.1299 7.46222 17.1318 7.46934 17.1335C7.48931 17.1382 7.50966 17.142 7.53019 17.1448C7.53703 17.1459 7.54378 17.1472 7.55062 17.148C7.60442 17.1547 7.65883 17.1547 7.71262 17.148C7.71947 17.1472 7.72622 17.1459 7.73306 17.1449C7.76075 17.1409 7.78817 17.1353 7.81519 17.128C7.83606 17.1224 7.85653 17.1158 7.87659 17.1083C7.88194 17.1063 7.88738 17.1046 7.89272 17.1024C7.91912 17.092 7.94485 17.0799 7.96978 17.0663L14.8969 13.2879C15.0078 13.2274 15.1003 13.1382 15.1648 13.0296C15.2293 12.921 15.2633 12.797 15.2633 12.6707V4.48235C15.2633 4.47953 15.2628 4.47672 15.2627 4.47391C15.2621 4.4162 15.2543 4.3588 15.2395 4.303C15.2377 4.29635 15.2358 4.28978 15.2338 4.28313C15.2274 4.26175 15.22 4.2406 15.2116 4.21966C15.2089 4.2131 15.2064 4.20653 15.2036 4.19997C15.1924 4.17411 15.1797 4.14894 15.1656 4.1246L15.165 4.12385L15.1631 4.12103C15.149 4.09759 15.1335 4.07499 15.1167 4.05335C15.1122 4.04763 15.1075 4.0421 15.1028 4.03647C15.0885 4.01891 15.0734 4.00219 15.0576 3.98632C15.0529 3.98163 15.0485 3.97694 15.0438 3.97253C15.0018 3.93275 14.9551 3.89833 14.9047 3.87007C14.9019 3.86847 14.8996 3.8665 14.8969 3.8651L7.96828 0.0858472C7.865 0.0295168 7.74923 0 7.63158 0C7.51393 0 7.39816 0.0295168 7.29488 0.0858472L0.366469 3.8651C0.363656 3.8666 0.361313 3.86857 0.358594 3.87007C0.30823 3.89832 0.261561 3.93271 0.219656 3.97244C0.214875 3.97694 0.210281 3.98182 0.205594 3.9865C0.189906 4.00225 0.174906 4.01885 0.160594 4.03628C0.155906 4.042 0.151031 4.04763 0.146531 4.05353C0.129767 4.07512 0.114272 4.09765 0.100125 4.12103L0.09825 4.12385L0.0977812 4.1246C0.0835717 4.14894 0.0708302 4.17411 0.059625 4.19997C0.0568125 4.20653 0.054375 4.2131 0.05175 4.21966C0.04325 4.24066 0.0358438 4.26182 0.0295313 4.28313C0.0275625 4.28969 0.0255 4.29625 0.0238125 4.303C0.00902814 4.35879 0.00121855 4.4162 0.0005625 4.47391C0.0005625 4.47672 0 4.47953 0 4.48235V12.6707C7.24302e-06 12.797 0.0340429 12.921 0.0985295 13.0296C0.163016 13.1382 0.255572 13.2274 0.366469 13.2879H0.366375ZM13.857 12.2533L8.33475 15.2655V8.97766L13.8571 5.7145L13.857 12.2533ZM7.63172 1.504L13.1367 4.50682L7.63172 7.75975L2.12672 4.50672L7.63172 1.504ZM1.40616 5.7145L6.9285 8.97766V15.2655L1.40616 12.2533V5.7145ZM28.0612 44.9162L28.0318 44.9209C27.848 44.9543 27.6848 45.0588 27.5775 45.2118C27.4703 45.3647 27.4278 45.5538 27.4592 45.738C27.4906 45.9221 27.5934 46.0865 27.7452 46.1953C27.8971 46.3041 28.0857 46.3486 28.2702 46.3191C28.4547 46.2897 28.6201 46.1886 28.7305 46.0379C28.8409 45.8872 28.8873 45.699 28.8598 45.5142C28.8323 45.3295 28.733 45.163 28.5834 45.0511C28.4339 44.9391 28.2462 44.8907 28.0612 44.9163V44.9162ZM28.1801 45.7142L28.1649 45.6116L28.1815 45.7223L28.1801 45.7142ZM47.9993 4.47391C47.9987 4.4162 47.9909 4.35879 47.9761 4.303C47.9744 4.29635 47.9723 4.28978 47.9705 4.28313C47.9641 4.26175 47.9567 4.2406 47.9482 4.21966C47.9455 4.2131 47.9431 4.20653 47.9403 4.19997C47.9291 4.17411 47.9163 4.14894 47.9021 4.1246L47.9016 4.12385L47.8998 4.12103C47.8856 4.09766 47.8701 4.07512 47.8534 4.05353C47.8489 4.04763 47.844 4.0421 47.8393 4.03638C47.825 4.01888 47.81 4.00222 47.7943 3.98641L47.7803 3.97235C47.7384 3.93268 47.6917 3.89836 47.6414 3.87016C47.6386 3.86857 47.6362 3.8666 47.6334 3.865L40.7049 0.0858472C40.6017 0.0295168 40.4859 0 40.3682 0C40.2506 0 40.1348 0.0295168 40.0315 0.0858472L33.1029 3.8651C33.1001 3.8666 33.0977 3.86857 33.095 3.87016C33.0447 3.89836 32.9981 3.93269 32.9562 3.97235C32.9513 3.97703 32.9467 3.98191 32.942 3.98669C32.9263 4.00232 32.9114 4.01882 32.8972 4.03619C32.8925 4.042 32.8876 4.04763 32.883 4.05353C32.8663 4.07512 32.8508 4.09766 32.8367 4.12103L32.8348 4.12385L32.8343 4.1246C32.8201 4.14894 32.8074 4.17411 32.7962 4.19997C32.7934 4.20653 32.7909 4.2131 32.7882 4.21966C32.7798 4.24066 32.7724 4.26182 32.766 4.28313C32.7641 4.28969 32.7621 4.29625 32.7603 4.303C32.7455 4.3588 32.7377 4.4162 32.7371 4.47391C32.7371 4.47672 32.7365 4.47953 32.7365 4.48235V12.6707C32.7365 12.797 32.7705 12.921 32.835 13.0296C32.8995 13.1382 32.9921 13.2274 33.103 13.2879L40.03 17.0663C40.055 17.0799 40.0807 17.092 40.1071 17.1024C40.1124 17.1045 40.1179 17.1063 40.1232 17.1082C40.1433 17.1157 40.1637 17.1223 40.1846 17.1279L40.206 17.1335C40.226 17.1382 40.2462 17.142 40.2668 17.1448C40.2736 17.1459 40.2803 17.1472 40.2872 17.148C40.341 17.1547 40.3954 17.1547 40.4492 17.148C40.456 17.1472 40.4628 17.1459 40.4696 17.1449C40.4973 17.1409 40.5247 17.1353 40.5518 17.128C40.5727 17.1224 40.5932 17.1158 40.6133 17.1083C40.6186 17.1063 40.624 17.1046 40.6293 17.1024C40.6557 17.092 40.6814 17.0799 40.7063 17.0663L47.6335 13.2879C47.7444 13.2274 47.8369 13.1382 47.9014 13.0296C47.9659 12.9209 47.9999 12.797 47.9999 12.6707V4.48235C47.9999 4.47953 47.9993 4.47672 47.9993 4.47391ZM39.6651 15.2655L34.1427 12.2533V5.7145L39.6651 8.97766V15.2655ZM40.3682 7.75975L34.8632 4.50672L40.3682 1.504L45.8732 4.50682L40.3682 7.75975ZM46.5937 12.2533L41.0713 15.2655V8.97766L46.5937 5.7145V12.2533ZM2.15428 27.5631C2.16816 27.5631 2.18213 27.5628 2.19619 27.5619C2.28837 27.5565 2.37858 27.533 2.46168 27.4927C2.54477 27.4524 2.61911 27.3961 2.68046 27.3271C2.74181 27.2581 2.78896 27.1777 2.81923 27.0904C2.84949 27.0032 2.86227 26.9108 2.85684 26.8187L2.85553 26.7991C2.8403 26.6146 2.75291 26.4435 2.61235 26.3231C2.47178 26.2026 2.28938 26.1424 2.10473 26.1556C1.92007 26.1688 1.74806 26.2542 1.62604 26.3935C1.50401 26.5327 1.44181 26.7144 1.45294 26.8992L2.15494 26.86L1.45303 26.9013C1.46355 27.0802 1.54199 27.2483 1.67232 27.3713C1.80266 27.4944 1.97506 27.563 2.15428 27.5631ZM2.3685 21.9634C2.45911 21.9814 2.55236 21.9813 2.64293 21.9631C2.73349 21.945 2.81958 21.9091 2.89628 21.8577C2.97298 21.8062 3.03878 21.7401 3.08991 21.6632C3.14104 21.5863 3.17649 21.5 3.19425 21.4094L3.19678 21.3964C3.2305 21.2138 3.1906 21.0253 3.08579 20.8719C2.98097 20.7186 2.81976 20.613 2.63735 20.5782C2.45493 20.5433 2.26613 20.582 2.11217 20.6859C1.9582 20.7897 1.85157 20.9502 1.81556 21.1324L2.50434 21.2736L1.81453 21.1377C1.79669 21.2283 1.79687 21.3215 1.81505 21.4121C1.83324 21.5026 1.86908 21.5886 1.92053 21.6653C1.97198 21.742 2.03803 21.8078 2.11491 21.8589C2.19179 21.9101 2.27799 21.9456 2.36859 21.9634H2.3685ZM1.45144 23.9947L1.45022 24.0144C1.43925 24.2006 1.50268 24.3835 1.62655 24.523C1.75042 24.6624 1.92459 24.747 2.11078 24.758C2.12484 24.7588 2.13891 24.7592 2.15278 24.7592C2.29054 24.76 2.42554 24.7206 2.54123 24.6458C2.65692 24.571 2.74827 24.4641 2.80409 24.3382C2.85991 24.2122 2.87776 24.0727 2.85546 23.9368C2.83316 23.8008 2.77167 23.6744 2.67854 23.5728C2.58541 23.4713 2.46468 23.3992 2.33116 23.3653C2.19764 23.3314 2.05713 23.3372 1.92686 23.382C1.79658 23.4268 1.68221 23.5086 1.59776 23.6175C1.51331 23.7263 1.46246 23.8574 1.45144 23.9947ZM19.8864 3.36344C19.9854 3.36451 20.0834 3.34471 20.1742 3.30533C20.265 3.26595 20.3464 3.20788 20.4132 3.1349C20.4801 3.06193 20.5307 2.97569 20.562 2.88181C20.5932 2.78792 20.6043 2.68851 20.5946 2.59005C20.5848 2.49159 20.5544 2.39629 20.5053 2.31037C20.4562 2.22445 20.3896 2.14985 20.3098 2.09141C20.2299 2.03298 20.1387 1.99204 20.0419 1.97125C19.9452 1.95047 19.8451 1.95031 19.7483 1.97078C19.7418 1.9721 19.7261 1.97575 19.7196 1.97735C19.5526 2.01821 19.4064 2.1188 19.3086 2.26013C19.2108 2.40145 19.1681 2.57371 19.1886 2.74436C19.2092 2.91501 19.2915 3.07222 19.4201 3.18629C19.5487 3.30035 19.7146 3.36337 19.8864 3.36344ZM30.6955 44.3158C30.5174 44.3676 30.3669 44.4878 30.277 44.6501C30.187 44.8124 30.1649 45.0036 30.2154 45.1822C30.2658 45.3607 30.3848 45.5121 30.5464 45.6033C30.708 45.6945 30.8991 45.7181 31.078 45.669C31.0844 45.6672 31.0998 45.6627 31.1062 45.6607C31.2835 45.6054 31.4317 45.4822 31.5185 45.318C31.6053 45.1537 31.6236 44.9618 31.5693 44.7842C31.5151 44.6065 31.3928 44.4575 31.229 44.3698C31.0653 44.282 30.8735 44.2626 30.6955 44.3158ZM30.7768 3.67028C30.7841 3.67263 30.8002 3.67741 30.8077 3.67928C30.9879 3.72747 31.1799 3.70264 31.3419 3.61018C31.504 3.51772 31.6231 3.36508 31.6733 3.18539C31.7235 3.0057 31.7009 2.81344 31.6103 2.65035C31.5196 2.48725 31.3684 2.36647 31.1892 2.31421C31.0101 2.26194 30.8176 2.28241 30.6535 2.37118C30.4894 2.45995 30.3669 2.60985 30.3126 2.78835C30.2583 2.96686 30.2766 3.15958 30.3635 3.32469C30.4504 3.48979 30.5989 3.61397 30.7768 3.67028ZM25.4448 2.82241L25.4659 2.82269C25.6507 2.82279 25.8281 2.75013 25.9597 2.62045C26.0913 2.49076 26.1666 2.31446 26.1693 2.12969C26.172 1.94492 26.1018 1.76653 25.9739 1.6331C25.8461 1.49968 25.6708 1.42195 25.4861 1.41672L25.4767 1.41644C25.3847 1.41393 25.2931 1.42961 25.2071 1.46257C25.1212 1.49553 25.0425 1.54512 24.9758 1.60851C24.909 1.6719 24.8554 1.74784 24.818 1.83198C24.7806 1.91612 24.7602 2.00681 24.758 2.09885C24.7536 2.28575 24.8233 2.46679 24.952 2.60238C25.0807 2.73797 25.2579 2.81708 25.4448 2.82241ZM28.1418 3.07619C28.3245 3.10565 28.5115 3.06186 28.6622 2.95431C28.8128 2.84677 28.915 2.68415 28.9465 2.50175C28.9781 2.31935 28.9364 2.13188 28.8305 1.98001C28.7247 1.82815 28.5633 1.72414 28.3812 1.69057C28.3745 1.68925 28.3587 1.68682 28.3519 1.68569C28.1675 1.65783 27.9796 1.70436 27.8295 1.81505C27.6794 1.92573 27.5794 2.0915 27.5516 2.27589C27.5237 2.46029 27.5702 2.64819 27.6809 2.79828C27.7916 2.94836 27.9574 3.04833 28.1418 3.07619ZM22.6526 2.91532C22.6733 2.91532 22.6942 2.91438 22.7152 2.9125C22.7224 2.91194 22.7389 2.91025 22.7461 2.90941C22.9275 2.88577 23.0927 2.79254 23.2067 2.6494C23.3206 2.50626 23.3745 2.32443 23.3569 2.14231C23.3393 1.96018 23.2516 1.79203 23.1123 1.67336C22.9731 1.5547 22.7931 1.49481 22.6105 1.50635C22.4279 1.51789 22.2569 1.59995 22.1337 1.7352C22.0105 1.87046 21.9446 2.04831 21.9501 2.2312C21.9556 2.41409 22.0319 2.58769 22.163 2.71535C22.2941 2.843 22.4697 2.9147 22.6526 2.91532ZM17.1926 4.16669C17.2956 4.16843 17.3978 4.14758 17.4919 4.10563C17.586 4.06367 17.6697 4.00162 17.7373 3.92383C17.8048 3.84604 17.8545 3.75441 17.8828 3.65536C17.9112 3.55632 17.9175 3.45226 17.9013 3.35052C17.8852 3.24877 17.8469 3.1518 17.7893 3.06642C17.7316 2.98103 17.656 2.90931 17.5676 2.85629C17.4793 2.80327 17.3805 2.77023 17.278 2.7595C17.1755 2.74877 17.072 2.76061 16.9746 2.79419L16.9508 2.80291C16.7962 2.86026 16.6667 2.97003 16.5848 3.11309C16.5029 3.25615 16.4738 3.42342 16.5025 3.58574C16.5313 3.74806 16.6162 3.89512 16.7423 4.00129C16.8684 4.10746 17.0278 4.16599 17.1926 4.16669ZM1.82316 29.7771C1.85445 29.936 1.94004 30.0791 2.06526 30.1818C2.19049 30.2845 2.34754 30.3405 2.5095 30.3401C2.60767 30.3401 2.70476 30.3197 2.79457 30.28C2.88438 30.2404 2.96493 30.1824 3.03106 30.1099C3.09719 30.0373 3.14745 29.9518 3.17862 29.8587C3.20979 29.7656 3.22118 29.667 3.21208 29.5693C3.20297 29.4715 3.17356 29.3768 3.12573 29.291C3.0779 29.2053 3.0127 29.1305 2.9343 29.0714C2.8559 29.0123 2.76604 28.9703 2.67045 28.9479C2.57486 28.9255 2.47566 28.9234 2.37919 28.9415C2.28849 28.9589 2.20209 28.9939 2.12492 29.0446C2.04776 29.0953 1.98133 29.1607 1.92945 29.2371C1.87756 29.3135 1.84123 29.3993 1.82253 29.4897C1.80382 29.5802 1.80311 29.6734 1.82044 29.7641C1.82081 29.7654 1.82288 29.7758 1.82316 29.7771ZM25.3527 45.1762L25.3432 45.1765C25.1584 45.1817 24.9831 45.2595 24.8553 45.393C24.7274 45.5264 24.6573 45.7049 24.66 45.8897C24.6627 46.0745 24.7381 46.2508 24.8698 46.3804C25.0015 46.5101 25.179 46.5827 25.3638 46.5825L25.3851 46.5822L25.3734 45.8791L25.3941 46.5819C25.5805 46.5764 25.7571 46.4971 25.885 46.3615C26.0129 46.2258 26.0818 46.0448 26.0763 45.8584C26.0708 45.672 25.9915 45.4954 25.8558 45.3675C25.7202 45.2396 25.5392 45.1708 25.3528 45.1762H25.3527ZM44.993 17.7219C44.9035 17.7449 44.8195 17.7854 44.7457 17.8409C44.672 17.8964 44.6098 17.9659 44.5629 18.0454C44.5159 18.1249 44.4851 18.2129 44.4722 18.3043C44.4592 18.3957 44.4644 18.4888 44.4875 18.5782L44.4938 18.6021C44.5356 18.7503 44.6245 18.8809 44.7471 18.9741C44.8697 19.0673 45.0193 19.118 45.1732 19.1185C45.2814 19.1184 45.3881 19.0933 45.4849 19.0452C45.5818 18.997 45.6662 18.9272 45.7317 18.8411C45.7971 18.755 45.8418 18.655 45.8623 18.5488C45.8827 18.4426 45.8784 18.3331 45.8496 18.2288L45.1684 18.4028L45.8493 18.2274C45.8263 18.138 45.7859 18.054 45.7304 17.9801C45.6749 17.9063 45.6054 17.8442 45.5259 17.7972C45.4463 17.7503 45.3583 17.7195 45.2669 17.7066C45.1755 17.6936 45.0824 17.6988 44.993 17.7219ZM46.5937 23.9531C46.5936 23.861 46.5753 23.7698 46.5399 23.6848C46.5044 23.5998 46.4526 23.5227 46.3872 23.4578C46.3219 23.3929 46.2444 23.3415 46.1591 23.3067C46.0739 23.2718 45.9826 23.2541 45.8905 23.2547C45.7036 23.2557 45.5246 23.3308 45.3928 23.4634C45.2611 23.5961 45.1872 23.7755 45.1874 23.9625C45.1874 23.9705 45.1875 23.9785 45.1878 23.9865C45.1875 23.9941 45.1874 24.0017 45.1874 24.0093C45.1874 24.1958 45.2615 24.3747 45.3933 24.5065C45.5252 24.6384 45.7041 24.7125 45.8905 24.7125C46.077 24.7125 46.2559 24.6384 46.3877 24.5065C46.5196 24.3747 46.5937 24.1958 46.5937 24.0093V24C46.5937 23.9934 46.5936 23.9868 46.5934 23.9804C46.5935 23.9744 46.5936 23.9684 46.5937 23.9625V23.9531ZM19.9672 44.666C19.9569 44.6636 19.9466 44.6613 19.9362 44.659C19.7533 44.6217 19.563 44.6581 19.4067 44.7602C19.2503 44.8623 19.1406 45.022 19.1012 45.2045C19.0619 45.387 19.0961 45.5777 19.1965 45.7352C19.2969 45.8926 19.4553 46.0041 19.6374 46.0455C19.8195 46.0869 20.0105 46.0548 20.1691 45.9562C20.3276 45.8576 20.4409 45.7004 20.4843 45.5188C20.5277 45.3372 20.4978 45.1458 20.401 44.9862C20.3041 44.8265 20.1483 44.7115 19.9672 44.666ZM19.7802 45.4375L19.7813 45.4321L19.8015 45.3495L19.7802 45.4375ZM22.6358 45.0919C22.4505 45.071 22.2645 45.1246 22.1187 45.2408C21.9728 45.357 21.8792 45.5265 21.8582 45.7118C21.8373 45.8971 21.8909 46.0831 22.0071 46.2289C22.1233 46.3748 22.2927 46.4685 22.4781 46.4894C22.4852 46.4902 22.5017 46.4918 22.5089 46.4925C22.5299 46.4943 22.5508 46.4953 22.5714 46.4953C22.7524 46.4954 22.9265 46.4258 23.0575 46.3008C23.1884 46.1759 23.2661 46.0053 23.2745 45.8244C23.2828 45.6436 23.221 45.4666 23.1021 45.3301C22.9832 45.1937 22.8162 45.1084 22.6359 45.0919H22.6358ZM25.9865 18.9213V18.1406C25.9865 17.9541 25.9124 17.7753 25.7805 17.6434C25.6487 17.5116 25.4698 17.4375 25.2833 17.4375C25.0969 17.4375 24.918 17.5116 24.7862 17.6434C24.6543 17.7753 24.5802 17.9541 24.5802 18.1406V18.7691H23.7862V18.1406C23.7862 17.9541 23.7122 17.7753 23.5803 17.6434C23.4484 17.5116 23.2696 17.4375 23.0831 17.4375C22.8966 17.4375 22.7178 17.5116 22.5859 17.6434C22.4541 17.7753 22.38 17.9541 22.38 18.1406V18.7691H21.0105C20.824 18.7691 20.6452 18.8432 20.5133 18.975C20.3815 19.1069 20.3074 19.2857 20.3074 19.4722C20.3074 19.6587 20.3815 19.8375 20.5133 19.9694C20.6452 20.1013 20.824 20.1753 21.0105 20.1753H21.2824V27.8246H21.0105C20.824 27.8246 20.6452 27.8987 20.5133 28.0305C20.3815 28.1624 20.3074 28.3412 20.3074 28.5277C20.3074 28.7142 20.3815 28.893 20.5133 29.0249C20.6452 29.1568 20.824 29.2308 21.0105 29.2308H22.38V29.8593C22.38 30.0458 22.4541 30.2247 22.5859 30.3565C22.7178 30.4884 22.8966 30.5625 23.0831 30.5625C23.2696 30.5625 23.4484 30.4884 23.5803 30.3565C23.7122 30.2247 23.7862 30.0458 23.7862 29.8593V29.2308H24.5803V29.8593C24.5803 30.0458 24.6544 30.2247 24.7863 30.3565C24.9181 30.4884 25.097 30.5625 25.2834 30.5625C25.4699 30.5625 25.6488 30.4884 25.7806 30.3565C25.9125 30.2247 25.9866 30.0458 25.9866 29.8593V29.0787C26.4857 28.8986 26.9172 28.5691 27.2225 28.135C27.5277 27.7009 27.6918 27.1834 27.6924 26.6527V25.875C27.6925 25.5236 27.6206 25.1759 27.481 24.8534C27.3414 24.5309 27.1372 24.2405 26.881 24C27.1372 23.7595 27.3414 23.469 27.481 23.1465C27.6206 22.8241 27.6925 22.4764 27.6924 22.125V21.3472C27.6918 20.8166 27.5277 20.299 27.2224 19.8649C26.9172 19.4309 26.4856 19.1014 25.9865 18.9213ZM26.2862 26.6527C26.2858 26.9634 26.1623 27.2613 25.9426 27.481C25.7229 27.7007 25.425 27.8242 25.1143 27.8246H22.6887V24.7031H25.1143C25.425 24.7034 25.7229 24.827 25.9426 25.0467C26.1623 25.2664 26.2858 25.5643 26.2862 25.875V26.6527ZM26.2862 22.125C26.2858 22.4357 26.1623 22.7335 25.9426 22.9532C25.7229 23.1729 25.425 23.2965 25.1143 23.2968H22.6887V20.1753H25.1143C25.425 20.1757 25.7229 20.2993 25.9426 20.519C26.1623 20.7387 26.2858 21.0365 26.2862 21.3472V22.125ZM47.9762 35.1499L47.9704 35.1301C47.9641 35.1087 47.9567 35.0875 47.9482 35.0666C47.9455 35.06 47.9431 35.0535 47.9403 35.0469C47.9291 35.021 47.9163 34.9959 47.9021 34.9715L47.9016 34.9708L47.8998 34.968C47.8856 34.9446 47.8701 34.922 47.8533 34.9004C47.8489 34.8946 47.8441 34.8891 47.8394 34.8834C47.825 34.8659 47.81 34.8492 47.7942 34.8333C47.7895 34.8287 47.7851 34.824 47.7803 34.8195C47.7384 34.7796 47.6917 34.7452 47.6412 34.7169C47.6385 34.7154 47.6362 34.7135 47.6334 34.712L40.7049 30.9328C40.6017 30.8765 40.4859 30.8469 40.3682 30.8469C40.2506 30.8469 40.1348 30.8765 40.0315 30.9328L33.1029 34.712C33.1001 34.7135 33.0977 34.7155 33.095 34.7171C33.0447 34.7453 32.9981 34.7796 32.9563 34.8193C32.9513 34.824 32.9467 34.8288 32.942 34.8336C32.9263 34.8493 32.9114 34.8658 32.8972 34.8832C32.8925 34.8889 32.8876 34.8946 32.8831 34.9005C32.8663 34.9221 32.8508 34.9446 32.8366 34.968L32.8348 34.9708L32.8343 34.9715C32.8201 34.9959 32.8074 35.021 32.7962 35.0469C32.7934 35.0535 32.7909 35.06 32.7882 35.0666C32.7798 35.0876 32.7724 35.1088 32.766 35.1301C32.7641 35.1366 32.7621 35.1432 32.7603 35.1499C32.7455 35.2057 32.7377 35.2631 32.7371 35.3208C32.7371 35.3237 32.7365 35.3265 32.7365 35.3293V43.5177C32.7365 43.644 32.7705 43.768 32.835 43.8766C32.8995 43.9852 32.9921 44.0745 33.103 44.1349L40.03 47.9133C40.055 47.9268 40.0807 47.9389 40.1071 47.9493C40.1124 47.9514 40.1179 47.9532 40.1232 47.9552C40.1433 47.9627 40.1637 47.9692 40.1846 47.9748L40.206 47.9805C40.226 47.9852 40.2462 47.9889 40.2668 47.9918C40.2736 47.9928 40.2803 47.9942 40.2872 47.995C40.341 48.0017 40.3954 48.0017 40.4492 47.995C40.456 47.9942 40.4628 47.9928 40.4696 47.9918C40.4973 47.9878 40.5247 47.9822 40.5518 47.9749C40.5727 47.9693 40.5932 47.9628 40.6133 47.9553C40.6186 47.9532 40.624 47.9515 40.6293 47.9493C40.6557 47.9389 40.6814 47.9268 40.7063 47.9133L47.6335 44.1348C47.7444 44.0744 47.8369 43.9851 47.9014 43.8765C47.9659 43.7679 47.9999 43.6439 47.9999 43.5176V35.3293C47.9999 35.3265 47.9993 35.3237 47.9993 35.3208C47.9987 35.2631 47.9909 35.2057 47.9761 35.1499H47.9762ZM39.6651 46.1124L34.1427 43.1002V36.5615L39.6651 39.8248V46.1124ZM40.3682 38.6068L34.8632 35.3537L40.3682 32.3509L45.8733 35.3538L40.3682 38.6068ZM46.5937 43.1002L41.0713 46.1124V39.8247L46.5937 36.5615V43.1002ZM46.4044 21.0626C46.3799 20.8789 46.2835 20.7124 46.1363 20.5998C45.9891 20.4872 45.8032 20.4376 45.6195 20.4619C45.4812 20.479 45.351 20.5367 45.2454 20.6276C45.1399 20.7186 45.0636 20.8388 45.0262 20.973C44.9889 21.1073 44.9922 21.2496 45.0356 21.382C45.0791 21.5145 45.1607 21.631 45.2704 21.7171C45.38 21.8031 45.5127 21.8548 45.6516 21.8655C45.7906 21.8762 45.9296 21.8455 46.0511 21.7773C46.1727 21.7091 46.2713 21.6065 46.3345 21.4823C46.3978 21.3581 46.4228 21.218 46.4065 21.0796L46.4044 21.0626ZM15.2395 35.1499C15.2377 35.1433 15.2358 35.1367 15.2338 35.1301C15.2274 35.1087 15.22 35.0875 15.2116 35.0666C15.2089 35.06 15.2064 35.0535 15.2036 35.0469C15.1924 35.021 15.1797 34.9959 15.1656 34.9715L15.165 34.9708L15.1631 34.968C15.149 34.9446 15.1335 34.922 15.1167 34.9004C15.1122 34.8946 15.1075 34.8891 15.1029 34.8835C15.0884 34.8658 15.0733 34.849 15.0575 34.8332C15.0529 34.8286 15.0485 34.824 15.0438 34.8196C15.0018 34.7797 14.955 34.7451 14.9045 34.7168C14.9018 34.7154 14.8995 34.7134 14.8969 34.712L7.96828 30.9328C7.865 30.8765 7.74923 30.8469 7.63158 30.8469C7.51393 30.8469 7.39816 30.8765 7.29488 30.9328L0.366469 34.712C0.363656 34.7135 0.361219 34.7156 0.358406 34.7171C0.308222 34.7453 0.261713 34.7796 0.219938 34.8192C0.214875 34.8239 0.210188 34.8288 0.205313 34.8338C0.18975 34.8494 0.174906 34.8658 0.160781 34.883C0.156 34.8888 0.151031 34.8946 0.146437 34.9006C0.129709 34.9222 0.114246 34.9447 0.100125 34.9681L0.09825 34.9708L0.0977812 34.9715C0.0835717 34.9959 0.0708302 35.021 0.059625 35.0469C0.0568125 35.0535 0.054375 35.06 0.05175 35.0666C0.04325 35.0876 0.0358438 35.1088 0.0295313 35.1301C0.0275625 35.1366 0.0255 35.1432 0.0238125 35.1499C0.00902814 35.2057 0.00121855 35.2631 0.0005625 35.3208C0.0005625 35.3237 0 35.3265 0 35.3293V43.5176C7.24302e-06 43.6439 0.0340429 43.7679 0.0985295 43.8765C0.163016 43.9851 0.255572 44.0744 0.366469 44.1348L7.29356 47.9133C7.31849 47.9268 7.34423 47.9389 7.37063 47.9493C7.37588 47.9514 7.38131 47.9532 7.38666 47.9552C7.40678 47.9627 7.42728 47.9692 7.44816 47.9748C7.45528 47.9768 7.46231 47.9787 7.46944 47.9805C7.48941 47.9852 7.50975 47.9889 7.53028 47.9918C7.53712 47.9928 7.54388 47.9942 7.55072 47.995C7.60451 48.0017 7.65893 48.0017 7.71272 47.995C7.71956 47.9942 7.72631 47.9928 7.73316 47.9918C7.76084 47.9878 7.78827 47.9822 7.81528 47.9749C7.83616 47.9693 7.85662 47.9628 7.87669 47.9553C7.88203 47.9532 7.88747 47.9515 7.89281 47.9493C7.91921 47.9389 7.94495 47.9268 7.96988 47.9133L14.897 44.1348C15.0079 44.0744 15.1004 43.9851 15.1649 43.8765C15.2294 43.7679 15.2634 43.6439 15.2634 43.5176V35.3293C15.2634 35.3265 15.2629 35.3237 15.2628 35.3208C15.2622 35.2631 15.2544 35.2057 15.2396 35.1499H15.2395ZM6.9285 46.1124L1.40616 43.1002V36.5615L6.9285 39.8248V46.1124ZM7.63163 38.6068L2.12653 35.3537L7.63153 32.3509L13.1367 35.3538L7.63163 38.6068ZM13.8571 43.1002L8.33475 46.1124V39.8247L13.8571 36.5614V43.1002ZM3.88088 18.7732C3.93929 18.5965 3.92522 18.4038 3.84175 18.2374C3.75828 18.071 3.61224 17.9445 3.43563 17.8856C3.25903 17.8267 3.06629 17.8403 2.89967 17.9233C2.73305 18.0063 2.60615 18.152 2.54681 18.3285L2.54288 18.3406C2.50902 18.4458 2.50047 18.5575 2.51793 18.6667C2.5354 18.7759 2.57837 18.8793 2.64337 18.9688C2.70837 19.0582 2.79355 19.131 2.892 19.1813C2.99044 19.2316 3.09936 19.2579 3.20991 19.2582C3.35842 19.2577 3.50303 19.2106 3.6234 19.1236C3.74376 19.0366 3.83381 18.9141 3.88088 18.7732ZM34.666 24C34.666 21.8904 34.0405 19.8282 32.8685 18.0742C31.6965 16.3202 30.0306 14.9531 28.0817 14.1458C26.1327 13.3385 23.9881 13.1272 21.919 13.5388C19.85 13.9503 17.9495 14.9662 16.4578 16.4579C14.9661 17.9496 13.9503 19.8501 13.5387 21.9191C13.1272 23.9881 13.3384 26.1327 14.1457 28.0817C14.953 30.0307 16.3201 31.6965 18.0741 32.8685C19.8282 34.0405 21.8903 34.6661 23.9999 34.6661C26.8278 34.6629 29.5389 33.5381 31.5385 31.5385C33.5381 29.5389 34.6628 26.8278 34.666 24ZM23.9999 33.2598C22.1685 33.2598 20.3782 32.7168 18.8554 31.6993C17.3326 30.6818 16.1458 29.2356 15.4449 27.5436C14.744 25.8516 14.5607 23.9897 14.918 22.1935C15.2753 20.3972 16.1572 18.7473 17.4522 17.4523C18.7472 16.1572 20.3972 15.2753 22.1934 14.918C23.9896 14.5607 25.8515 14.7441 27.5435 15.445C29.2355 16.1458 30.6817 17.3327 31.6992 18.8555C32.7167 20.3782 33.2598 22.1685 33.2598 24C33.257 26.455 32.2805 28.8086 30.5445 30.5446C28.8086 32.2806 26.4549 33.257 23.9999 33.2598ZM45.3558 28.8705C45.2207 28.8345 45.0779 28.8394 44.9456 28.8844C44.8132 28.9294 44.6971 29.0125 44.6118 29.1234C44.5266 29.2342 44.4761 29.3678 44.4666 29.5073C44.4571 29.6468 44.489 29.786 44.5585 29.9073C44.6279 30.0287 44.7316 30.1268 44.8567 30.1893C44.9817 30.2519 45.1225 30.276 45.2612 30.2587C45.4 30.2415 45.5305 30.1835 45.6364 30.0923C45.7423 30.001 45.8189 29.8804 45.8564 29.7457L45.8612 29.727C45.9077 29.5464 45.8806 29.3547 45.7859 29.1941C45.6911 29.0335 45.5364 28.9171 45.3559 28.8705H45.3558ZM45.8056 26.1014C45.6207 26.077 45.4337 26.127 45.2857 26.2404C45.1377 26.3538 45.0408 26.5213 45.0162 26.7062C45.0159 26.7088 45.0143 26.7206 45.0142 26.723C44.9925 26.9077 45.0448 27.0933 45.1597 27.2395C45.2746 27.3856 45.4427 27.4803 45.6272 27.5029C45.8117 27.5255 45.9976 27.474 46.1443 27.3599C46.291 27.2457 46.3866 27.0781 46.41 26.8937L45.7133 26.7985L46.4104 26.8908C46.4225 26.7992 46.4165 26.7062 46.3926 26.617C46.3688 26.5278 46.3276 26.4441 46.2715 26.3708C46.2153 26.2975 46.1453 26.236 46.0653 26.1898C45.9854 26.1435 45.8971 26.1135 45.8056 26.1014ZM17.3572 43.8954C17.3482 43.892 17.3392 43.8888 17.3302 43.8856C17.1533 43.8254 16.9598 43.8374 16.7918 43.919C16.6237 44.0006 16.4947 44.1452 16.4327 44.3215C16.3707 44.4977 16.3807 44.6913 16.4606 44.8602C16.5405 45.029 16.6839 45.1595 16.8594 45.2233C17.035 45.2871 17.2287 45.2791 17.3984 45.2009C17.5681 45.1227 17.7 44.9807 17.7656 44.8058C17.8312 44.6308 17.8251 44.4371 17.7486 44.2666C17.6721 44.0962 17.5315 43.9628 17.3573 43.8954H17.3572ZM17.0648 44.675L17.0685 44.6647L17.1103 44.5537L17.0648 44.675Z" fill="#ED1B24"/>
</svg>
