<svg width="22" height="38" viewBox="0 0 22 38" fill="none" xmlns="http://www.w3.org/2000/svg">
<path d="M2.89589 36.2732L2.89828 36.2946L2.90297 36.3157C2.93484 36.4588 2.93465 36.6065 2.90242 36.7496C2.87018 36.8928 2.80631 37.0293 2.7136 37.1503C2.62084 37.2713 2.5011 37.3741 2.36109 37.451C2.22105 37.5279 2.06444 37.5767 1.90138 37.5935C1.73831 37.6103 1.57351 37.5945 1.41792 37.5474C1.26235 37.5004 1.12039 37.4235 1.00071 37.3228C0.881098 37.2222 0.786615 37.1003 0.722021 36.9658C0.657466 36.8314 0.623833 36.6867 0.62245 36.5408L0.622248 36.5195L0.619775 36.4983C0.0921467 31.9741 0.636541 28.1745 2.21153 25.1194C3.78377 22.0696 6.40195 19.7245 10.0926 18.137C10.0931 18.1368 10.0936 18.1366 10.094 18.1364L10.5394 17.9491C13.8642 16.6015 16.2562 14.57 17.6926 11.8192C19.125 9.07595 19.5849 5.66002 19.13 1.5778C19.1114 1.31013 19.2005 1.04237 19.3856 0.82888C19.5727 0.612946 19.8445 0.468736 20.1476 0.432589L20.279 0.416914L20.2958 0.400979C20.5528 0.411138 20.7988 0.499868 20.9956 0.652594C21.2253 0.830769 21.3692 1.08077 21.4057 1.34851C21.9326 5.87112 21.3881 9.66953 19.8135 12.7239C18.2413 15.7737 15.6231 18.1188 11.9324 19.7063C11.932 19.7065 11.9315 19.7067 11.931 19.7069L11.4858 19.8941C8.16089 21.2417 5.76886 23.2733 4.33245 26.0241C2.89914 28.7691 2.43957 32.1876 2.89589 36.2732Z" fill="#ED1B24" stroke="#262626" stroke-width="0.8"/>
<path d="M15.3379 21.5124L15.4421 21.3979V21.3947C15.5153 21.3322 15.5977 21.2785 15.6874 21.2356C15.8219 21.1712 15.9694 21.1326 16.1214 21.1227C16.2733 21.1127 16.4255 21.1317 16.5689 21.1781C16.7121 21.2246 16.8428 21.2972 16.9536 21.3908L16.9536 21.3909L16.9589 21.3952C19.9614 23.8453 21.4349 28.7906 21.4349 36.4343C21.4349 36.5694 21.4068 36.7037 21.3516 36.8298C21.2963 36.956 21.2147 37.0722 21.1102 37.171C21.0057 37.2699 20.8804 37.3494 20.741 37.4041C20.6016 37.4587 20.4515 37.4871 20.2994 37.4871C20.1473 37.4871 19.9972 37.4587 19.8577 37.4041C19.7183 37.3494 19.5931 37.2699 19.4885 37.171C19.3841 37.0722 19.3025 36.956 19.2472 36.8298C19.192 36.7037 19.1639 36.5694 19.1639 36.4343C19.1639 33.0019 18.8451 30.1487 18.2296 27.9058C17.6154 25.6678 16.6953 23.9998 15.4629 22.987L15.4603 22.9848C15.347 22.8934 15.2554 22.7828 15.1895 22.6602C15.1236 22.5377 15.0845 22.4051 15.0735 22.27C15.0625 22.1349 15.0798 21.9988 15.1247 21.8692C15.1697 21.7395 15.2417 21.6181 15.3379 21.5124ZM5.83637 16.9376L5.83285 16.9355C1.36 14.2848 -0.363849 9.10168 0.707893 1.42393L0.708563 1.42266L0.739201 1.36468L0.749725 1.29996C0.793585 1.03022 0.94992 0.781704 1.193 0.613045C1.43677 0.443907 1.74525 0.37135 2.04973 0.415671C2.35404 0.459966 2.62152 0.616069 2.7967 0.842095C2.97119 1.06722 3.04145 1.34446 2.99766 1.61372L2.99756 1.6137L2.99631 1.62267C2.03782 8.49586 3.39266 12.9477 7.09149 15.1588C7.34787 15.3146 7.52206 15.5561 7.58431 15.8253C7.64648 16.0943 7.59401 16.377 7.43409 16.6131C7.27352 16.8501 7.01565 17.0228 6.7128 17.0854C6.4097 17.1482 6.09393 17.0938 5.83637 16.9376ZM15.2763 3.29384V3.30016L15.6667 3.30951C15.9574 3.31648 16.231 3.42647 16.4343 3.61227C16.637 3.79751 16.7546 4.04361 16.7709 4.30014C16.7872 4.55652 16.7017 4.81264 16.5254 5.01778C16.3537 5.21753 16.1074 5.35509 15.8303 5.39941H6.46343H6.4634C6.15311 5.39943 5.85939 5.28342 5.64508 5.08284C5.43281 4.88416 5.31579 4.61947 5.31131 4.34712C5.31608 4.09421 5.41642 3.84755 5.59997 3.6527C5.78039 3.46118 6.02968 3.33248 6.30576 3.29384H15.2763Z" fill="#ED1B24" stroke="#262626" stroke-width="0.8"/>
<path d="M15.6768 9.11939H15.6881L15.6994 9.11875C16.0077 9.10132 16.3072 9.20089 16.5323 9.38986C16.7567 9.57822 16.8877 9.83833 16.9049 10.1106C16.9221 10.3826 16.8249 10.6539 16.6275 10.8644C16.4316 11.0734 16.1524 11.2052 15.8483 11.225H6.464H6.45269L6.44141 11.2256C6.13319 11.243 5.83367 11.1435 5.60854 10.9545C5.38415 10.7661 5.25313 10.506 5.23593 10.2338C5.21874 9.96178 5.31594 9.69044 5.51334 9.47992C5.70923 9.27101 5.98842 9.1392 6.29251 9.11939H15.6768ZM15.6768 26.6002H15.98C16.0367 26.6102 16.0925 26.6241 16.147 26.6419C16.2903 26.6888 16.4211 26.7615 16.5323 26.8549C16.6435 26.9482 16.7328 27.0603 16.7963 27.1838C16.8597 27.3073 16.8964 27.4404 16.9049 27.5756C16.9135 27.7108 16.8938 27.8466 16.8467 27.9756C16.7995 28.1046 16.7254 28.225 16.6275 28.3295C16.5295 28.434 16.4096 28.5204 16.2739 28.5828C16.1413 28.6437 15.9968 28.6803 15.8483 28.69H6.46913C6.18009 28.682 5.90823 28.5722 5.70596 28.3874C5.50325 28.2021 5.38564 27.956 5.36934 27.6995C5.35305 27.4431 5.43858 27.187 5.61487 26.9819C5.78654 26.7821 6.03291 26.6446 6.30994 26.6002H15.6768ZM15.2768 32.3956V32.4019L15.6673 32.4113C15.958 32.4182 16.2316 32.5282 16.4349 32.714C16.6376 32.8993 16.7552 33.1454 16.7715 33.4019C16.7878 33.6583 16.7023 33.9144 16.526 34.1195C16.3543 34.3193 16.1079 34.4568 15.8309 34.5012H6.464C6.15368 34.5012 5.85996 34.3852 5.64565 34.1846C5.43338 33.9859 5.31636 33.7212 5.31188 33.4489C5.31665 33.196 5.41699 32.9493 5.60054 32.7545C5.78096 32.5629 6.03025 32.4342 6.30634 32.3956H15.2768Z" fill="#ED1B24" stroke="#262626" stroke-width="0.8"/>
</svg>
