<svg width="24" height="42" viewBox="0 0 24 42" fill="none" xmlns="http://www.w3.org/2000/svg">
<path d="M3.64163 39.7314L3.64378 39.7518L3.648 39.7718C3.68222 39.9343 3.68202 40.1022 3.64741 40.2646C3.61281 40.427 3.54456 40.5803 3.44707 40.7147C3.34959 40.8491 3.22502 40.9616 3.0814 41.045C2.93778 41.1283 2.7783 41.1806 2.61322 41.1986C2.44815 41.2165 2.28114 41.1997 2.12297 41.1492C1.9648 41.0986 1.81898 41.0155 1.69489 40.9052L1.4291 41.2041L1.69489 40.9052C1.5708 40.7948 1.4712 40.6597 1.4025 40.5086C1.33381 40.3574 1.29756 40.1935 1.29607 40.0275L1.29588 40.0073L1.29367 39.9872C0.752725 35.0849 1.31055 30.9633 2.92763 27.648C4.54153 24.3392 7.22626 21.8007 11.0026 20.0838C11.0031 20.0836 11.0036 20.0833 11.0041 20.0831L11.4599 19.8806C14.8647 18.422 17.3082 16.2255 18.7737 13.2593C20.2348 10.3018 20.7051 6.61722 20.24 2.20787C20.2196 1.90216 20.3164 1.60006 20.5108 1.36302C20.7065 1.12438 20.9862 0.969857 21.2924 0.931254L21.4283 0.914115L21.4451 0.897281C21.7041 0.908781 21.9539 1.00357 22.1562 1.1695C22.3941 1.36457 22.5484 1.64316 22.5876 1.94823C23.1279 6.84908 22.57 10.9695 20.9533 14.2841C19.3394 17.5929 16.6547 20.1315 12.8783 21.8483C12.8778 21.8486 12.8773 21.8488 12.8768 21.849L12.4211 22.0515C9.01618 23.5101 6.57273 25.7066 5.10725 28.6728C3.64533 31.6319 3.17534 35.3189 3.64163 39.7314Z" fill="#ED1B24" stroke="#262626" stroke-width="0.8"/>
<path d="M16.3697 23.7383L16.4665 23.6258V23.6197C16.5455 23.5465 16.6344 23.4845 16.7309 23.4357C16.8684 23.3661 17.0184 23.3248 17.1722 23.3142C17.3259 23.3036 17.4802 23.3238 17.6259 23.3737C17.7717 23.4236 17.906 23.5022 18.0209 23.6048L18.0209 23.6049L18.0261 23.6094C21.1098 26.2689 22.6194 31.6365 22.6194 39.9115C22.6194 40.0654 22.5891 40.2177 22.5303 40.3599C22.4714 40.502 22.3851 40.6312 22.2763 40.74C22.1675 40.8488 22.0383 40.9351 21.8962 40.994C21.754 41.0528 21.6016 41.0832 21.4478 41.0832C21.2939 41.0832 21.1416 41.0528 20.9994 40.994C20.8572 40.9351 20.7281 40.8488 20.6193 40.74C20.5105 40.6312 20.4242 40.502 20.3653 40.3599C20.3064 40.2177 20.2761 40.0654 20.2761 39.9115C20.2761 36.2012 19.9501 33.1197 19.3216 30.6991C18.6946 28.2848 17.7563 26.4877 16.4997 25.3962L16.497 25.3939C16.3797 25.2937 16.2833 25.1714 16.2133 25.0339C16.1434 24.8964 16.1013 24.7464 16.0894 24.5925C16.0776 24.4387 16.0963 24.2841 16.1444 24.1375C16.1925 23.9909 16.269 23.8552 16.3697 23.7383ZM6.64741 18.8526L6.64386 18.8504C2.05446 15.9759 0.285325 10.3461 1.38671 2.02014L1.39097 2.01162L1.41901 1.95554L1.42855 1.89356C1.47585 1.58611 1.64334 1.31005 1.89419 1.12609C2.14503 0.942139 2.45868 0.865369 2.76612 0.912669C3.07357 0.959968 3.34964 1.12746 3.53359 1.37831C3.71754 1.62915 3.79431 1.9428 3.74701 2.25025L3.74692 2.25023L3.7458 2.25875C2.76643 9.68135 4.14962 14.4765 7.92503 16.8618C8.18857 17.0311 8.3742 17.2981 8.44114 17.6041C8.50818 17.9106 8.45073 18.2311 8.28145 18.4952C8.11216 18.7593 7.8449 18.9453 7.53845 19.0123C7.23201 19.0794 6.91148 19.0219 6.64741 18.8526ZM16.3157 4.02649V4.03357L16.7056 4.04344C16.9989 4.05087 17.2788 4.16811 17.4899 4.37198C17.701 4.57585 17.8279 4.8515 17.8455 5.14443C17.8631 5.43736 17.7701 5.72623 17.585 5.95392C17.4056 6.17461 17.1522 6.32225 16.8723 6.36982H7.2857H7.28567C6.9726 6.36984 6.67216 6.24635 6.44959 6.02618C6.22815 5.80712 6.10158 5.50995 6.09698 5.19863C6.10191 4.90992 6.21028 4.63251 6.40247 4.41687C6.59044 4.20598 6.8463 4.06797 7.12524 4.02649H16.3157Z" fill="#ED1B24" stroke="#262626" stroke-width="0.8"/>
<path d="M16.7156 10.3296H16.7276L16.7395 10.3289C17.0504 10.3103 17.356 10.416 17.589 10.6227C17.822 10.8294 17.9634 11.1202 17.982 11.4311C18.0006 11.7421 17.8949 12.0477 17.6881 12.2807C17.4839 12.5109 17.1975 12.6517 16.8907 12.6729H7.28562H7.27368L7.26175 12.6736C6.95082 12.6922 6.64523 12.5865 6.41223 12.3798C6.17922 12.1731 6.03787 11.8823 6.01928 11.5713C6.00069 11.2604 6.10639 10.9548 6.31311 10.7218C6.51738 10.4915 6.80376 10.3508 7.11052 10.3296H16.7156ZM16.7156 29.2408H17.0248C17.0819 29.2515 17.1383 29.2664 17.1935 29.2854L17.3242 28.9074L17.1935 29.2854C17.3392 29.3359 17.4736 29.4145 17.589 29.5168C17.7044 29.6192 17.7985 29.7433 17.8659 29.882C17.9333 30.0207 17.9728 30.1714 17.982 30.3253C17.9912 30.4793 17.97 30.6335 17.9195 30.7793C17.8691 30.9251 17.7905 31.0595 17.6881 31.1748C17.5858 31.2902 17.4617 31.3843 17.323 31.4517C17.1876 31.5175 17.0408 31.5567 16.8907 31.5671H7.29106C6.99941 31.5585 6.72136 31.4414 6.51141 31.2387L6.23352 31.5264L6.51141 31.2387C6.30033 31.0348 6.17345 30.7591 6.15584 30.4662C6.13823 30.1733 6.23118 29.8844 6.41632 29.6567C6.59577 29.436 6.84916 29.2884 7.12898 29.2408H16.7156ZM16.3156 35.5104V35.5175L16.7055 35.5274C16.9989 35.5348 17.2788 35.652 17.4898 35.8559C17.7009 36.0598 17.8278 36.3354 17.8454 36.6283C17.863 36.9213 17.7701 37.2101 17.5849 37.4378C17.4055 37.6585 17.1521 37.8062 16.8723 37.8537H7.28562C6.97252 37.8538 6.67208 37.7303 6.44951 37.5101C6.22807 37.291 6.1015 36.9939 6.09691 36.6825C6.10184 36.3938 6.2102 36.1164 6.4024 35.9008C6.59037 35.6899 6.84624 35.5519 7.12517 35.5104H16.3156Z" fill="#ED1B24" stroke="#262626" stroke-width="0.8"/>
</svg>
