<svg width="47" height="50" viewBox="0 0 47 50" fill="none" xmlns="http://www.w3.org/2000/svg">
<path d="M23.493 0C23.7079 0 23.9141 0.0877973 24.066 0.244078C24.218 0.400358 24.3034 0.61232 24.3034 0.833333V5C24.3034 5.22101 24.218 5.43297 24.066 5.58926C23.9141 5.74554 23.7079 5.83333 23.493 5.83333C23.2781 5.83333 23.072 5.74554 22.92 5.58926C22.7681 5.43297 22.6827 5.22101 22.6827 5V0.833333C22.6827 0.61232 22.7681 0.400358 22.92 0.244078C23.072 0.0877973 23.2781 0 23.493 0ZM9.74362 11.2068C9.81844 11.2862 9.90784 11.3494 10.0066 11.3928C10.1054 11.4363 10.2116 11.4591 10.3191 11.4599C10.4265 11.4608 10.5331 11.4396 10.6325 11.3977C10.7319 11.3559 10.8223 11.294 10.8983 11.2159C10.9742 11.1378 11.0344 11.0449 11.0751 10.9426C11.1159 10.8404 11.1364 10.7308 11.1356 10.6203C11.1348 10.5098 11.1126 10.4006 11.0704 10.299C11.0281 10.1974 10.9666 10.1054 10.8895 10.0285L8.02368 7.08333C7.94879 7.00434 7.85939 6.94143 7.76068 6.89824C7.66196 6.85505 7.55588 6.83246 7.44861 6.83176C7.34133 6.83106 7.23498 6.85227 7.13574 6.89417C7.0365 6.93606 6.94633 6.99781 6.87048 7.07582C6.79462 7.15383 6.73458 7.24655 6.69384 7.34861C6.6531 7.45067 6.63247 7.56003 6.63315 7.67035C6.63383 7.78068 6.6558 7.88976 6.6978 7.99128C6.73979 8.0928 6.80097 8.18473 6.87778 8.26175L9.74362 11.2068ZM4.86182 23.339L0.810135 23.3407C0.59522 23.3407 0.389129 23.4286 0.237199 23.5849C0.0852693 23.7412 -5.37034e-05 23.9532 2.53598e-08 24.1742C5.37541e-05 24.3952 0.0854798 24.6072 0.237486 24.7634C0.389491 24.9196 0.595626 25.0074 0.81054 25.0073L4.86182 25.0057C4.96824 25.0056 5.07361 24.9841 5.17191 24.9422C5.27022 24.9002 5.35953 24.8388 5.43476 24.7614C5.50999 24.684 5.56966 24.5922 5.61035 24.491C5.65105 24.3899 5.67199 24.2816 5.67196 24.1721C5.67193 24.0627 5.65095 23.9543 5.6102 23.8532C5.56945 23.7521 5.50974 23.6603 5.43447 23.5829C5.35921 23.5056 5.26986 23.4442 5.17154 23.4024C5.07321 23.3605 4.96824 23.339 4.86182 23.339ZM37.2556 37.1265C37.1808 37.0472 37.0913 36.984 36.9925 36.9405C36.8938 36.8971 36.7875 36.8742 36.6801 36.8734C36.5726 36.8726 36.4661 36.8937 36.3667 36.9356C36.2672 36.9775 36.1769 37.0393 36.1009 37.1174C36.0249 37.1956 35.9648 37.2885 35.9241 37.3907C35.8833 37.493 35.8628 37.6025 35.8636 37.713C35.8644 37.8235 35.8866 37.9327 35.9288 38.0343C35.9711 38.1359 36.0325 38.2279 36.1097 38.3048L38.9755 41.25C39.0504 41.329 39.1398 41.3919 39.2385 41.4351C39.3372 41.4783 39.4433 41.5009 39.5506 41.5016C39.6579 41.5023 39.7642 41.4811 39.8634 41.4392C39.9627 41.3973 40.0529 41.3355 40.1287 41.2575C40.2046 41.1795 40.2646 41.0868 40.3053 40.9847C40.3461 40.8827 40.3667 40.7733 40.366 40.663C40.3654 40.5527 40.3434 40.4436 40.3014 40.3421C40.2594 40.2405 40.1982 40.1486 40.1214 40.0716L37.2556 37.1265ZM9.74362 37.1265L6.87778 40.0716C6.80097 40.1486 6.73979 40.2405 6.6978 40.3421C6.6558 40.4436 6.63383 40.5527 6.63315 40.663C6.63247 40.7733 6.6531 40.8827 6.69384 40.9847C6.73458 41.0868 6.79462 41.1795 6.87048 41.2575C6.94633 41.3355 7.0365 41.3973 7.13574 41.4392C7.23498 41.4811 7.34133 41.5023 7.44861 41.5016C7.55588 41.5009 7.66196 41.4783 7.76068 41.4351C7.85939 41.3919 7.94879 41.329 8.02368 41.25L10.8895 38.3048C10.9666 38.2279 11.0281 38.1359 11.0704 38.0343C11.1126 37.9327 11.1348 37.8235 11.1356 37.713C11.1364 37.6025 11.1159 37.493 11.0751 37.3907C11.0344 37.2885 10.9742 37.1956 10.8983 37.1174C10.8223 37.0393 10.7319 36.9775 10.6325 36.9356C10.5331 36.8937 10.4265 36.8726 10.3191 36.8734C10.2116 36.8742 10.1054 36.8971 10.0066 36.9405C9.90784 36.984 9.81844 37.0472 9.74362 37.1265ZM46.1891 23.326L42.1374 23.3277C41.9224 23.3277 41.7164 23.4156 41.5644 23.5719C41.4125 23.7282 41.3272 23.9402 41.3272 24.1612C41.3273 24.3822 41.4127 24.5942 41.5647 24.7504C41.7167 24.9066 41.9229 24.9944 42.1378 24.9943L46.1899 24.9927C46.4048 24.9926 46.6109 24.9048 46.7628 24.7484C46.9147 24.5921 47.0001 24.3801 47 24.1591C46.9999 23.9381 46.9145 23.7262 46.7625 23.5699C46.6105 23.4137 46.404 23.3259 46.1891 23.326ZM36.6743 11.4428C36.7808 11.443 36.8863 11.4215 36.9846 11.3796C37.083 11.3377 37.1724 11.2763 37.2476 11.1988L40.1119 8.25117C40.2639 8.09479 40.3492 7.88274 40.3491 7.66166C40.3491 7.44059 40.2636 7.2286 40.1115 7.07233C39.9595 6.91607 39.7533 6.82832 39.5383 6.8284C39.3233 6.82847 39.1172 6.91637 38.9652 7.07275L36.101 10.0203C35.9877 10.1369 35.9105 10.2854 35.8793 10.4471C35.848 10.6087 35.8641 10.7763 35.9255 10.9286C35.9869 11.0808 36.0908 11.211 36.224 11.3025C36.3573 11.394 36.514 11.4429 36.6743 11.4428ZM35.9669 30.096C37.1087 27.8689 37.6862 25.3818 37.6461 22.8645C37.6061 20.3472 36.9497 17.8808 35.7377 15.6933C34.5998 13.59 32.9648 11.8156 30.9838 10.5338C29.0027 9.25212 26.7396 8.50448 24.4033 8.36H24.4017C23.8003 8.32583 23.1974 8.32583 22.5959 8.36C20.2596 8.50448 17.9964 9.25212 16.0154 10.5338C14.0344 11.8156 12.3994 13.59 11.2615 15.6933C10.0494 17.8808 9.39309 20.3472 9.35304 22.8645C9.31298 25.3818 9.89053 27.8689 11.0323 30.096L16.2066 40.2057V44.1667C16.2083 45.7132 16.8065 47.1959 17.8699 48.2895C18.9333 49.3831 20.375 49.9982 21.8789 50H25.1203C26.6241 49.9982 28.0659 49.3831 29.1293 48.2895C30.1927 47.1959 30.7909 45.7132 30.7926 44.1667V40.2057L35.9669 30.096ZM17.8272 43.3333V40.8333H29.172V43.3333H17.8272ZM12.6724 16.5128C13.6657 14.6431 15.1072 13.0656 16.86 11.9298C18.6129 10.7941 20.6189 10.1379 22.6876 10.0236C23.228 9.99267 23.7696 9.99267 24.3099 10.0236C26.379 10.1377 28.3853 10.7937 30.1384 11.9295C31.8915 13.0652 33.3333 14.6429 34.3268 16.5128C35.4047 18.4578 35.9887 20.6507 36.0247 22.8891C36.0607 25.1275 35.5477 27.3391 34.5329 29.3197L29.4933 39.1667H24.3099V32.2077C24.7388 32.2727 25.1715 32.3078 25.6049 32.3128C26.3043 32.3473 27.0034 32.2375 27.6609 31.9899C28.3184 31.7424 28.9212 31.362 29.4335 30.8712C31.9699 28.3175 31.0442 23.3795 31.0036 23.1702C30.9831 23.0627 30.9421 22.9604 30.883 22.8693C30.8238 22.7781 30.7478 22.6999 30.6591 22.6392C30.5705 22.5784 30.471 22.5363 30.3664 22.5153C30.2619 22.4943 30.1543 22.4947 30.05 22.5167C26.5662 23.2333 24.5102 26.6307 23.4996 28.9032C22.489 26.6307 20.433 23.2329 16.9492 22.5167C16.8449 22.4948 16.7373 22.4944 16.6328 22.5155C16.5283 22.5365 16.4288 22.5786 16.3402 22.6394C16.2516 22.7001 16.1755 22.7783 16.1164 22.8694C16.0572 22.9605 16.0162 23.0627 15.9956 23.1702C15.9551 23.3793 15.0295 28.3175 17.5657 30.8712C18.078 31.362 18.6807 31.7424 19.3382 31.99C19.9958 32.2376 20.6948 32.3474 21.3943 32.3128C21.8277 32.3078 22.2604 32.2727 22.6893 32.2077V39.1667H17.5059L12.4663 29.3197C11.4515 27.3391 10.9385 25.1275 10.9745 22.8891C11.0105 20.6507 11.5945 18.4578 12.6724 16.5128ZM24.5763 30.5721C25.1891 28.9404 26.7707 25.5046 29.5356 24.4011C29.6697 25.9237 29.5819 28.3887 28.2999 29.6802C27.4836 30.5 26.2338 30.8007 24.5763 30.5721ZM22.4223 30.5721C20.7699 30.8016 19.5176 30.5013 18.7017 29.6826C17.3367 28.3113 17.3478 25.7617 17.4684 24.4027C20.2301 25.5083 21.8097 28.9417 22.4223 30.5721ZM25.1203 48.3333H21.8789C20.9454 48.332 20.0408 47.9998 19.3177 47.3926C18.5946 46.7854 18.0971 45.9404 17.9092 45H29.09C28.9021 45.9404 28.4046 46.7854 27.6815 47.3926C26.9584 47.9998 26.0538 48.332 25.1203 48.3333Z" fill="#ED1B24"/>
</svg>
