<svg width="56" height="56" viewBox="0 0 56 56" fill="none" xmlns="http://www.w3.org/2000/svg">
<path d="M28 0C12.5475 0 0 12.5475 0 28C0 43.4525 12.5475 56 28 56C43.4525 56 56 43.4525 56 28C56 12.5475 43.4525 0 28 0ZM28 1.69575C42.5373 1.69575 54.3042 13.4627 54.3042 28C54.3042 42.5373 42.5373 54.3042 28 54.3042C13.4627 54.3042 1.69575 42.5373 1.69575 28C1.69575 13.4627 13.4627 1.69575 28 1.69575ZM18.648 16.1332C18.4408 16.1496 18.2465 16.2468 18.102 16.4062C13.825 20.9702 13.825 28.4112 18.102 32.977C18.1753 33.0775 18.2677 33.1604 18.3731 33.2201C18.4785 33.2799 18.5945 33.3152 18.7136 33.3237C18.8326 33.3322 18.952 33.3138 19.0639 33.2696C19.1758 33.2254 19.2777 33.1564 19.3629 33.0672C19.4482 32.978 19.5148 32.8706 19.5584 32.752C19.6021 32.6334 19.6218 32.5063 19.6162 32.3789C19.6107 32.2516 19.58 32.127 19.5263 32.0132C19.4725 31.8995 19.3969 31.7991 19.3043 31.7188C15.6748 27.846 15.6748 21.5915 19.3043 17.7188C19.3876 17.6342 19.454 17.5324 19.4994 17.4196C19.5448 17.3068 19.5682 17.1853 19.5682 17.0625C19.5682 16.9397 19.5448 16.8182 19.4994 16.7054C19.454 16.5926 19.3876 16.4908 19.3043 16.4062C19.2259 16.3204 19.1323 16.252 19.0289 16.2052C18.9256 16.1583 18.8145 16.1339 18.7023 16.1332C18.6848 16.1327 18.6655 16.1327 18.648 16.1332ZM38.9917 16.1332C38.8038 16.1628 38.6306 16.2589 38.5 16.4062C38.4166 16.4908 38.3502 16.5926 38.3048 16.7054C38.2595 16.8182 38.2361 16.9397 38.2361 17.0625C38.2361 17.1853 38.2595 17.3068 38.3048 17.4196C38.3502 17.5324 38.4166 17.6342 38.5 17.7188C42.1295 21.5915 42.1295 27.846 38.5 31.7188C38.4083 31.7995 38.3336 31.9 38.2807 32.0136C38.2277 32.1273 38.1978 32.2516 38.1927 32.3784C38.1877 32.5052 38.2077 32.6317 38.2515 32.7497C38.2952 32.8678 38.3617 32.9746 38.4466 33.0634C38.5316 33.1522 38.6331 33.2209 38.7445 33.265C38.8559 33.3091 38.9748 33.3277 39.0934 33.3196C39.2119 33.3114 39.3276 33.2767 39.4328 33.2177C39.538 33.1587 39.6304 33.0767 39.704 32.977C43.9792 28.413 43.9792 20.972 39.704 16.4062C39.6256 16.3204 39.532 16.252 39.4287 16.2052C39.3253 16.1583 39.2143 16.1339 39.102 16.1332C39.0653 16.1307 39.0285 16.1307 38.9917 16.1332ZM21.329 18.3207C21.1212 18.3367 20.9262 18.4339 20.7812 18.5938C17.6348 21.952 17.6348 27.4312 20.7812 30.7895C20.8548 30.8892 20.9472 30.9712 21.0525 31.0302C21.1577 31.0892 21.2733 31.1239 21.3919 31.1321C21.5105 31.1402 21.6294 31.1216 21.7408 31.0775C21.8522 31.0334 21.9537 30.9647 22.0386 30.8759C22.1235 30.7871 22.1901 30.6803 22.2338 30.5622C22.2775 30.4442 22.2975 30.3177 22.2925 30.1909C22.2875 30.0641 22.2575 29.9398 22.2046 29.8261C22.1516 29.7125 22.0769 29.612 21.9852 29.5312C19.4845 26.8643 19.4845 22.5732 21.9852 19.9062C22.0686 19.8217 22.135 19.7199 22.1804 19.6071C22.2258 19.4943 22.2492 19.3728 22.2492 19.25C22.2492 19.1272 22.2258 19.0057 22.1804 18.8929C22.135 18.7801 22.0686 18.6783 21.9852 18.5938C21.9069 18.5079 21.8133 18.4395 21.7099 18.3927C21.6066 18.3458 21.4955 18.3214 21.3832 18.3207C21.3652 18.3201 21.3471 18.3201 21.329 18.3207ZM36.3125 18.3207C36.1246 18.3503 35.9514 18.4464 35.8208 18.5938C35.7374 18.6783 35.671 18.7801 35.6256 18.8929C35.5802 19.0057 35.5568 19.1272 35.5568 19.25C35.5568 19.3728 35.5802 19.4943 35.6256 19.6071C35.671 19.7199 35.7374 19.8217 35.8208 19.9062C38.3197 22.5732 38.3197 26.8643 35.8208 29.5312C35.7281 29.6116 35.6525 29.712 35.5987 29.8257C35.545 29.9395 35.5143 30.0641 35.5088 30.1914C35.5032 30.3188 35.5229 30.4459 35.5666 30.5645C35.6102 30.6831 35.6768 30.7905 35.7621 30.8797C35.8473 30.9689 35.9492 31.0379 36.0611 31.0821C36.173 31.1263 36.2924 31.1447 36.4114 31.1362C36.5305 31.1277 36.6465 31.0924 36.7519 31.0326C36.8573 30.9729 36.9497 30.89 37.023 30.7895C40.1695 27.4295 40.1695 21.952 37.023 18.5938C36.9448 18.5081 36.8515 18.4399 36.7485 18.393C36.6454 18.3462 36.5347 18.3216 36.4227 18.3207C36.386 18.3182 36.3492 18.3182 36.3125 18.3207ZM23.8438 20.5082C23.6753 20.5494 23.5226 20.6447 23.4062 20.7812C21.3902 22.9338 21.3902 26.4513 23.4062 28.602C23.4791 28.7042 23.5715 28.7888 23.6773 28.85C23.7831 28.9112 23.8999 28.9477 24.0198 28.957C24.1398 28.9664 24.2603 28.9484 24.3733 28.9042C24.4863 28.86 24.5892 28.7907 24.6752 28.7009C24.7612 28.611 24.8283 28.5026 24.8721 28.3829C24.9159 28.2633 24.9354 28.135 24.9292 28.0067C24.9231 27.8783 24.8915 27.7529 24.8365 27.6386C24.7815 27.5243 24.7044 27.4238 24.6102 27.3438C23.24 25.8825 23.24 23.5007 24.6102 22.0395C24.7703 21.8782 24.8653 21.6566 24.8751 21.4217C24.8849 21.1869 24.8088 20.9572 24.6628 20.7812C24.5783 20.6884 24.4762 20.6159 24.3633 20.5688C24.2503 20.5217 24.1293 20.5011 24.0082 20.5082C23.9535 20.5025 23.8985 20.5025 23.8438 20.5082ZM33.6333 20.5082C33.4648 20.5494 33.3121 20.6447 33.1958 20.7812C33.1124 20.8658 33.046 20.9676 33.0006 21.0804C32.9552 21.1932 32.9318 21.3147 32.9318 21.4375C32.9318 21.5603 32.9552 21.6818 33.0006 21.7946C33.046 21.9074 33.1124 22.0092 33.1958 22.0938C33.8562 22.8084 34.223 23.7457 34.223 24.7188C34.223 25.6918 33.8562 26.6291 33.1958 27.3438C33.1008 27.4234 33.0229 27.5238 32.9671 27.6382C32.9114 27.7525 32.8792 27.8783 32.8726 28.0071C32.866 28.1358 32.8852 28.2646 32.9289 28.3848C32.9726 28.505 33.0398 28.6138 33.126 28.7041C33.2122 28.7943 33.3155 28.8639 33.4289 28.9081C33.5423 28.9523 33.6632 28.9702 33.7836 28.9606C33.904 28.9509 34.0211 28.9139 34.127 28.8521C34.233 28.7903 34.3254 28.705 34.398 28.602C36.414 26.4495 36.414 22.932 34.398 20.7812C34.3198 20.6956 34.2265 20.6274 34.1235 20.5805C34.0204 20.5337 33.9097 20.5091 33.7977 20.5082C33.743 20.5025 33.688 20.5025 33.6333 20.5082ZM28.9275 21C27.006 21 25.4275 22.5785 25.4275 24.5C25.4275 26.1187 26.5528 27.496 28.0525 27.8915V42H29.8025V27.8898C30.5514 27.6912 31.2142 27.2517 31.6886 26.6391C32.163 26.0265 32.4226 25.2748 32.4275 24.5C32.4275 22.5785 30.8508 21 28.9275 21ZM28.9275 22.75C29.904 22.75 30.6775 23.5235 30.6775 24.5C30.6775 25.4765 29.904 26.25 28.9275 26.25C27.951 26.25 27.1775 25.4765 27.1775 24.5C27.1775 23.5235 27.951 22.75 28.9275 22.75Z" fill="#ED1B24"/>
</svg>
