<svg width="35" height="55" viewBox="0 0 35 55" fill="none" xmlns="http://www.w3.org/2000/svg">
<path d="M33.8984 52.4816H21.7873C17.8925 52.4816 14.7224 49.3115 14.7224 45.4167V38.3519H16.7409V45.4167C16.7409 48.1993 19.0047 50.463 21.7873 50.463H33.8984C34.4565 50.463 34.9076 50.0119 34.9076 49.4538C34.9076 48.8957 34.4565 48.4445 33.8984 48.4445H21.7873C20.1179 48.4445 18.7595 47.0861 18.7595 45.4167V38.3519H19.7687C20.3269 38.3519 20.778 37.9008 20.778 37.3427V34.3149H29.8613C30.4195 34.3149 30.8706 33.8637 30.8706 33.3056V15.1389C30.8706 14.5818 30.4195 14.1297 29.8613 14.1297H24.815V3.02778C24.815 1.35847 23.4566 0 21.7873 0C20.1179 0 18.7595 1.35847 18.7595 3.02778V14.1297H12.7039V3.02778C12.7039 1.35847 11.3454 0 9.67612 0C8.0068 0 6.64834 1.35847 6.64834 3.02778V14.1297H1.60203C1.04492 14.1297 0.592773 14.5818 0.592773 15.1389V33.3056C0.592773 33.8637 1.04492 34.3149 1.60203 34.3149H10.6854V37.3427C10.6854 37.9008 11.1375 38.3519 11.6946 38.3519H12.7039V45.4167C12.7039 50.4257 16.7783 54.5001 21.7873 54.5001H33.8984C34.4565 54.5001 34.9076 54.049 34.9076 53.4908C34.9076 52.9327 34.4565 52.4816 33.8984 52.4816ZM20.778 3.02778C20.778 2.47168 21.2301 2.01852 21.7873 2.01852C22.3444 2.01852 22.7965 2.47168 22.7965 3.02778V14.1297H20.778V3.02778ZM8.66686 3.02778C8.66686 2.47168 9.12002 2.01852 9.67612 2.01852C10.2322 2.01852 10.6854 2.47168 10.6854 3.02778V14.1297H8.66686V3.02778ZM2.6113 16.1482H28.8521V32.2963H2.6113V16.1482ZM18.7595 34.3149V36.3334H12.7039V34.3149H18.7595Z" fill="#ED1B24"/>
<path d="M19.769 20.185H24.8153V25.2313C24.8153 25.7884 25.2665 26.2406 25.8246 26.2406C26.3827 26.2406 26.8339 25.7884 26.8339 25.2313V19.1758C26.8339 18.6187 26.3827 18.1665 25.8246 18.1665H19.769C19.2109 18.1665 18.7598 18.6187 18.7598 19.1758C18.7598 19.7329 19.2109 20.185 19.769 20.185Z" fill="#ED1B24"/>
</svg>
