<svg width="35" height="55" viewBox="0 0 35 55" fill="none" xmlns="http://www.w3.org/2000/svg">
<path d="M33.3056 52.4816H21.1945C17.2997 52.4816 14.1297 49.3115 14.1297 45.4167V38.3519H16.1482V45.4167C16.1482 48.1993 18.4119 50.463 21.1945 50.463H33.3056C33.8637 50.463 34.3149 50.0119 34.3149 49.4538C34.3149 48.8957 33.8637 48.4445 33.3056 48.4445H21.1945C19.5252 48.4445 18.1667 47.0861 18.1667 45.4167V38.3519H19.176C19.7341 38.3519 20.1852 37.9008 20.1852 37.3427V34.3149H29.2686C29.8267 34.3149 30.2778 33.8637 30.2778 33.3056V15.1389C30.2778 14.5818 29.8267 14.1297 29.2686 14.1297H24.2223V3.02778C24.2223 1.35847 22.8638 0 21.1945 0C19.5252 0 18.1667 1.35847 18.1667 3.02778V14.1297H12.1111V3.02778C12.1111 1.35847 10.7527 0 9.08335 0C7.41403 0 6.05557 1.35847 6.05557 3.02778V14.1297H1.00926C0.452149 14.1297 0 14.5818 0 15.1389V33.3056C0 33.8637 0.452149 34.3149 1.00926 34.3149H10.0926V37.3427C10.0926 37.9008 10.5448 38.3519 11.1019 38.3519H12.1111V45.4167C12.1111 50.4257 16.1855 54.5001 21.1945 54.5001H33.3056C33.8637 54.5001 34.3149 54.049 34.3149 53.4908C34.3149 52.9327 33.8637 52.4816 33.3056 52.4816ZM20.1852 3.02778C20.1852 2.47168 20.6374 2.01852 21.1945 2.01852C21.7516 2.01852 22.2037 2.47168 22.2037 3.02778V14.1297H20.1852V3.02778ZM8.07409 3.02778C8.07409 2.47168 8.52725 2.01852 9.08335 2.01852C9.63945 2.01852 10.0926 2.47168 10.0926 3.02778V14.1297H8.07409V3.02778ZM2.01852 16.1482H28.2593V32.2963H2.01852V16.1482ZM18.1667 34.3149V36.3334H12.1111V34.3149H18.1667Z" fill="#ED1B24"/>
<path d="M19.1772 20.1855H24.2235V25.2318C24.2235 25.7889 24.6747 26.2411 25.2328 26.2411C25.7909 26.2411 26.2421 25.7889 26.2421 25.2318V19.1763C26.2421 18.6191 25.7909 18.167 25.2328 18.167H19.1772C18.6191 18.167 18.168 18.6191 18.168 19.1763C18.168 19.7334 18.6191 20.1855 19.1772 20.1855Z" fill="#ED1B24"/>
</svg>
