<svg width="40" height="50" viewBox="0 0 40 50" fill="none" xmlns="http://www.w3.org/2000/svg">
<path fill-rule="evenodd" clip-rule="evenodd" d="M24.0831 49.5H15.9165H1.33313C0.691528 49.5 0.166504 48.975 0.166504 48.3334V1.66663C0.166504 1.02502 0.691528 0.5 1.33313 0.5H38.6665C39.3082 0.5 39.8331 1.02502 39.8331 1.66663V48.3334C39.8331 48.975 39.3082 49.5 38.6665 49.5H24.0831ZM17.0831 47.1666H22.9165V39H17.0831V47.1666ZM37.4999 2.83337H2.49988V47.1666H14.7499V37.8334C14.7499 37.1917 15.2748 36.6666 15.9165 36.6666H24.0831C24.7249 36.6666 25.2499 37.1917 25.2499 37.8334V47.1666H37.4999V2.83337ZM7.16663 6.33325H11.8334C12.475 6.33325 13 6.85828 13 7.49988V12.1666C13 12.8082 12.475 13.3333 11.8334 13.3333H7.16663C6.52502 13.3333 6 12.8082 6 12.1666V7.49988C6 6.85828 6.52502 6.33325 7.16663 6.33325ZM8.33337 10.9999H10.6666V8.66663H8.33337V10.9999ZM22.3334 13.3333H17.6666C17.025 13.3333 16.5 12.8082 16.5 12.1666V7.49988C16.5 6.85828 17.025 6.33325 17.6666 6.33325H22.3334C22.975 6.33325 23.5 6.85828 23.5 7.49988V12.1666C23.5 12.8082 22.975 13.3333 22.3334 13.3333ZM21.1666 8.66663H18.8334V10.9999H21.1666V8.66663ZM32.8334 13.3333H28.1666C27.525 13.3333 27 12.8082 27 12.1666V7.49988C27 6.85828 27.525 6.33325 28.1666 6.33325H32.8334C33.475 6.33325 34 6.85828 34 7.49988V12.1666C34 12.8082 33.475 13.3333 32.8334 13.3333ZM31.6666 8.66663H29.3334V10.9999H31.6666V8.66663ZM7.16663 15.6666H11.8334C12.475 15.6666 13 16.1915 13 16.8333V21.4999C13 22.1416 12.475 22.6666 11.8334 22.6666H7.16663C6.52502 22.6666 6 22.1416 6 21.4999V16.8333C6 16.1915 6.52502 15.6666 7.16663 15.6666ZM8.33337 20.3333H10.6666V17.9999H8.33337V20.3333ZM22.3334 22.6666H17.6666C17.025 22.6666 16.5 22.1416 16.5 21.4999V16.8333C16.5 16.1915 17.025 15.6666 17.6666 15.6666H22.3334C22.975 15.6666 23.5 16.1915 23.5 16.8333V21.4999C23.5 22.1416 22.975 22.6666 22.3334 22.6666ZM21.1666 17.9999H18.8334V20.3333H21.1666V17.9999ZM32.8334 22.6666H28.1666C27.525 22.6666 27 22.1416 27 21.4999V16.8333C27 16.1915 27.525 15.6666 28.1666 15.6666H32.8334C33.475 15.6666 34 16.1915 34 16.8333V21.4999C34 22.1416 33.475 22.6666 32.8334 22.6666ZM31.6666 17.9999H29.3334V20.3333H31.6666V17.9999ZM7.16663 24.9999H11.8334C12.475 24.9999 13 25.5249 13 26.1666V30.8333C13 31.475 12.475 31.9999 11.8334 31.9999H7.16663C6.52502 31.9999 6 31.475 6 30.8333V26.1666C6 25.5249 6.52502 24.9999 7.16663 24.9999ZM8.33337 29.6666H10.6666V27.3333H8.33337V29.6666ZM22.3334 31.9999H17.6666C17.025 31.9999 16.5 31.475 16.5 30.8333V26.1666C16.5 25.5249 17.025 24.9999 17.6666 24.9999H22.3334C22.975 24.9999 23.5 25.5249 23.5 26.1666V30.8333C23.5 31.475 22.975 31.9999 22.3334 31.9999ZM21.1666 27.3333H18.8334V29.6666H21.1666V27.3333ZM32.8334 31.9999H28.1666C27.525 31.9999 27 31.475 27 30.8333V26.1666C27 25.5249 27.525 24.9999 28.1666 24.9999H32.8334C33.475 24.9999 34 25.5249 34 26.1666V30.8333C34 31.475 33.475 31.9999 32.8334 31.9999ZM31.6666 27.3333H29.3334V29.6666H31.6666V27.3333Z" fill="#ED1B24"/>
</svg>
