<svg width="46" height="44" viewBox="0 0 46 44" fill="none" xmlns="http://www.w3.org/2000/svg">
<path d="M22.999 7.73438C21.2879 7.73447 19.6152 8.24196 18.1925 9.19268C16.7698 10.1434 15.6609 11.4946 15.0061 13.0755C14.3514 14.6564 14.1801 16.396 14.5139 18.0742C14.8478 19.7525 15.6718 21.2941 16.8817 22.504C18.0917 23.714 19.6333 24.538 21.3115 24.8718C22.9898 25.2057 24.7293 25.0344 26.3102 24.3796C27.8911 23.7248 29.2423 22.616 30.1931 21.1932C31.1438 19.7705 31.6513 18.0979 31.6514 16.3867C31.6488 14.0928 30.7364 11.8935 29.1143 10.2714C27.4922 8.64937 25.293 7.73696 22.999 7.73438ZM22.999 23.0849C21.6742 23.0848 20.3791 22.6918 19.2775 21.9557C18.176 21.2196 17.3175 20.1733 16.8105 18.9493C16.3036 17.7252 16.171 16.3783 16.4296 15.0789C16.6881 13.7795 17.3261 12.586 18.263 11.6492C19.1999 10.7124 20.3935 10.0745 21.6929 9.81607C22.9923 9.55765 24.3392 9.69035 25.5632 10.1974C26.7872 10.7044 27.8334 11.563 28.5694 12.6646C29.3054 13.7662 29.6983 15.0614 29.6982 16.3862C29.6962 18.1623 28.9898 19.865 27.7338 21.1209C26.4779 22.3767 24.7751 23.083 22.999 23.0849Z" fill="#ED1B24"/>
<path d="M27.2154 15.546L21.372 12.0846C21.2216 11.9967 21.0509 11.9497 20.8768 11.9483C20.7026 11.9468 20.5312 11.991 20.3794 12.0764C20.2283 12.1611 20.1021 12.2841 20.0135 12.433C19.925 12.582 19.8772 12.7516 19.875 12.9248V19.8476C19.8778 20.0209 19.926 20.1905 20.0148 20.3395C20.1035 20.4884 20.2298 20.6115 20.3809 20.6965C20.5321 20.7814 20.7029 20.8253 20.8763 20.8237C21.0496 20.8221 21.2196 20.7751 21.3691 20.6874L27.214 17.2261C27.3599 17.1398 27.4809 17.017 27.565 16.8697C27.6491 16.7225 27.6934 16.5558 27.6936 16.3863C27.6937 16.2167 27.6497 16.05 27.5659 15.9026C27.482 15.7552 27.3613 15.6322 27.2154 15.5456V15.546ZM21.8281 18.1341V14.638L24.7789 16.386L21.8281 18.1341Z" fill="#ED1B24"/>
<path d="M45.2656 1.39453C45.2656 1.13553 45.1627 0.887138 44.9796 0.703997C44.7965 0.520856 44.5481 0.417969 44.2891 0.417969H1.71094C1.45194 0.417969 1.20354 0.520856 1.0204 0.703997C0.837263 0.887138 0.734375 1.13553 0.734375 1.39453V31.375C0.734375 31.634 0.837263 31.8824 1.0204 32.0655C1.20354 32.2487 1.45194 32.3516 1.71094 32.3516H44.2891C44.5481 32.3516 44.7965 32.2487 44.9796 32.0655C45.1627 31.8824 45.2656 31.634 45.2656 31.375V1.39453ZM2.6875 2.37109H43.3125V30.3984H2.6875V2.37109ZM1.71094 40.457H10.6953V42.6203C10.6953 43.1597 11.1641 43.582 11.7031 43.582H15.6172C15.7426 43.5829 15.8669 43.5585 15.9827 43.5102C16.0984 43.4618 16.2032 43.3906 16.2907 43.3008C16.3783 43.211 16.4468 43.1044 16.4922 42.9875C16.5375 42.8706 16.5588 42.7457 16.5547 42.6203V40.457H44.2891C44.5481 40.457 44.7965 40.3541 44.9796 40.171C45.1627 39.9879 45.2656 39.7395 45.2656 39.4805C45.2656 39.2215 45.1627 38.9731 44.9796 38.7899C44.7965 38.6068 44.5481 38.5039 44.2891 38.5039H16.5547V35.5539C16.5587 35.4288 16.5373 35.3042 16.4918 35.1877C16.4464 35.0711 16.3778 34.9649 16.2902 34.8755C16.2026 34.7862 16.0978 34.7155 15.9821 34.6677C15.8665 34.62 15.7423 34.5961 15.6172 34.5977H11.7031C11.1639 34.5977 10.6953 35.0146 10.6953 35.5539V38.5039H1.71094C1.45194 38.5039 1.20354 38.6068 1.0204 38.7899C0.837263 38.9731 0.734375 39.2215 0.734375 39.4805C0.734375 39.7395 0.837263 39.9879 1.0204 40.171C1.20354 40.3541 1.45194 40.457 1.71094 40.457ZM12.6484 36.5508H14.6016V41.6289H12.6484V36.5508Z" fill="#ED1B24"/>
</svg>
