<svg width="50" height="50" viewBox="0 0 50 50" fill="none" xmlns="http://www.w3.org/2000/svg">
<path d="M25 10.7344C23.2889 10.7345 21.6162 11.242 20.1935 12.1927C18.7708 13.1434 17.6619 14.4946 17.0071 16.0755C16.3523 17.6564 16.1811 19.396 16.5149 21.0742C16.8488 22.7525 17.6728 24.2941 18.8827 25.504C20.0927 26.714 21.6342 27.538 23.3125 27.8718C24.9907 28.2057 26.7303 28.0344 28.3112 27.3796C29.8921 26.7248 31.2433 25.616 32.194 24.1932C33.1448 22.7705 33.6523 21.0979 33.6523 19.3867C33.6498 17.0928 32.7373 14.8935 31.1153 13.2714C29.4932 11.6494 27.294 10.737 25 10.7344ZM25 26.0849C23.6751 26.0848 22.38 25.6918 21.2785 24.9557C20.177 24.2196 19.3185 23.1733 18.8115 21.9493C18.3046 20.7252 18.172 19.3783 18.4305 18.0789C18.6891 16.7795 19.3271 15.586 20.264 14.6492C21.2008 13.7124 22.3945 13.0745 23.6939 12.8161C24.9933 12.5576 26.3402 12.6903 27.5642 13.1974C28.7882 13.7044 29.8343 14.563 30.5704 15.6646C31.3064 16.7662 31.6992 18.0614 31.6992 19.3862C31.6972 21.1623 30.9907 22.865 29.7348 24.1209C28.4789 25.3767 26.7761 26.083 25 26.0849Z" fill="#ED1B24"/>
<path d="M29.2154 18.546L23.372 15.0846C23.2216 14.9967 23.0509 14.9497 22.8768 14.9483C22.7026 14.9468 22.5312 14.991 22.3794 15.0764C22.2283 15.1611 22.1021 15.2841 22.0135 15.433C21.925 15.582 21.8772 15.7516 21.875 15.9248V22.8476C21.8778 23.0209 21.926 23.1905 22.0148 23.3395C22.1035 23.4884 22.2298 23.6115 22.3809 23.6965C22.5321 23.7814 22.7029 23.8253 22.8763 23.8237C23.0496 23.8221 23.2196 23.7751 23.3691 23.6874L29.214 20.2261C29.3599 20.1398 29.4809 20.017 29.565 19.8697C29.6491 19.7225 29.6934 19.5558 29.6936 19.3863C29.6937 19.2167 29.6497 19.05 29.5659 18.9026C29.482 18.7552 29.3613 18.6322 29.2154 18.5456V18.546ZM23.8281 21.1341V17.638L26.7789 19.386L23.8281 21.1341Z" fill="#ED1B24"/>
<path d="M47.2656 4.39453C47.2656 4.13553 47.1627 3.88714 46.9796 3.704C46.7965 3.52086 46.5481 3.41797 46.2891 3.41797H3.71094C3.45194 3.41797 3.20354 3.52086 3.0204 3.704C2.83726 3.88714 2.73438 4.13553 2.73438 4.39453V34.375C2.73438 34.634 2.83726 34.8824 3.0204 35.0655C3.20354 35.2487 3.45194 35.3516 3.71094 35.3516H46.2891C46.5481 35.3516 46.7965 35.2487 46.9796 35.0655C47.1627 34.8824 47.2656 34.634 47.2656 34.375V4.39453ZM4.6875 5.37109H45.3125V33.3984H4.6875V5.37109ZM3.71094 43.457H12.6953V45.6203C12.6953 46.1597 13.1641 46.582 13.7031 46.582H17.6172C17.7426 46.5829 17.8669 46.5585 17.9827 46.5102C18.0984 46.4618 18.2032 46.3906 18.2907 46.3008C18.3783 46.211 18.4468 46.1044 18.4922 45.9875C18.5375 45.8706 18.5588 45.7457 18.5547 45.6203V43.457H46.2891C46.5481 43.457 46.7965 43.3541 46.9796 43.171C47.1627 42.9879 47.2656 42.7395 47.2656 42.4805C47.2656 42.2215 47.1627 41.9731 46.9796 41.7899C46.7965 41.6068 46.5481 41.5039 46.2891 41.5039H18.5547V38.5539C18.5587 38.4288 18.5373 38.3043 18.4918 38.1877C18.4464 38.0711 18.3778 37.9649 18.2902 37.8756C18.2026 37.7862 18.0978 37.7155 17.9821 37.6677C17.8665 37.62 17.7423 37.5961 17.6172 37.5977H13.7031C13.1639 37.5977 12.6953 38.0146 12.6953 38.5539V41.5039H3.71094C3.45194 41.5039 3.20354 41.6068 3.0204 41.7899C2.83726 41.9731 2.73438 42.2215 2.73438 42.4805C2.73438 42.7395 2.83726 42.9879 3.0204 43.171C3.20354 43.3541 3.45194 43.457 3.71094 43.457ZM14.6484 39.5508H16.6016V44.6289H14.6484V39.5508Z" fill="#ED1B24"/>
</svg>
