<svg width="56" height="56" viewBox="0 0 56 56" fill="none" xmlns="http://www.w3.org/2000/svg">
<path d="M45.5 7H10.5C9.57174 7 8.6815 7.36875 8.02513 8.02513C7.36875 8.6815 7 9.57174 7 10.5V45.5C7 46.4283 7.36875 47.3185 8.02513 47.9749C8.6815 48.6312 9.57174 49 10.5 49H45.5C46.4283 49 47.3185 48.6312 47.9749 47.9749C48.6312 47.3185 49 46.4283 49 45.5V10.5C49 9.57174 48.6312 8.6815 47.9749 8.02513C47.3185 7.36875 46.4283 7 45.5 7Z" stroke="#ED1B24" stroke-width="2"/>
<path d="M31.85 14C29.7232 14 28 15.6742 28 17.738C28 21.4772 32.55 24.8757 35 25.6667C37.45 24.8757 42 21.4784 42 17.738C42 15.673 40.2768 14 38.15 14C37.5367 13.9971 36.9315 14.1396 36.384 14.4158C35.8364 14.692 35.3621 15.0941 35 15.589C34.6379 15.0941 34.1636 14.692 33.616 14.4158C33.0685 14.1396 32.4633 13.9971 31.85 14Z" stroke="#ED1B24" stroke-width="2" stroke-linecap="round" stroke-linejoin="round"/>
</svg>
