<svg width="56" height="54" viewBox="0 0 56 54" fill="none" xmlns="http://www.w3.org/2000/svg">
<path d="M47.7552 14.2752C47.5348 12.562 46.9445 10.9173 46.0252 9.45494C45.1059 7.9926 43.8796 6.74766 42.4313 5.8064C40.983 4.86515 39.3474 4.25009 37.6377 4.00385C35.9281 3.75762 34.1853 3.88611 32.5303 4.38041C31.022 2.69297 29.0632 1.4713 26.8844 0.859076C24.7055 0.246854 22.3971 0.269539 20.2307 0.924462C18.0642 1.57938 16.1299 2.83931 14.6551 4.55607C13.1802 6.27282 12.2263 8.37501 11.9055 10.6154C9.44938 10.7411 7.09447 11.6334 5.17186 13.1669C3.24925 14.7004 1.85566 16.798 1.18705 19.1646C0.603117 21.2106 0.57642 23.3755 1.10973 25.4353C1.64303 27.4951 2.71697 29.375 4.22045 30.8806C5.70655 32.3428 7.70943 33.1598 9.79425 33.1542H12.2245V39.1804L11.1805 39.6966C10.8669 38.7347 10.2098 37.9221 9.33479 37.4143C8.45975 36.9065 7.42823 36.739 6.43749 36.944C5.44676 37.149 4.56637 37.712 3.9647 38.5254C3.36303 39.3387 3.08231 40.3454 3.17625 41.3527C3.27018 42.3601 3.73216 43.2974 4.47384 43.9855C5.21552 44.6736 6.18483 45.0642 7.19638 45.0824C8.20793 45.1007 9.19072 44.7455 9.95678 44.0846C10.7228 43.4238 11.2184 42.5037 11.3487 41.5004L13.9007 40.1838V33.1542H26.8927V45.4096C25.8874 45.5535 24.9712 46.0649 24.3209 46.8448C23.6706 47.6247 23.3323 48.6179 23.3714 49.6327C23.4105 50.6474 23.8242 51.6116 24.5326 52.3392C25.241 53.0668 26.1939 53.506 27.2072 53.5722C28.2205 53.6384 29.2224 53.3267 30.0194 52.6974C30.8164 52.0682 31.352 51.1659 31.5227 50.1649C31.6934 49.1638 31.4872 48.1351 30.9438 47.2772C30.4004 46.4193 29.5584 45.7932 28.5805 45.5198V33.1542H41.584V40.1954L44.1245 41.5004C44.2559 42.5002 44.7512 43.4164 45.5156 44.0741C46.28 44.7318 47.2599 45.0847 48.2681 45.0655C49.2763 45.0463 50.2421 44.6563 50.9809 43.97C51.7197 43.2837 52.1797 42.3492 52.273 41.3452C52.3664 40.3411 52.0865 39.3379 51.4868 38.5272C50.8871 37.7165 50.0098 37.1551 49.0224 36.9505C48.035 36.7458 47.0068 36.9121 46.1343 37.4176C45.2618 37.9231 44.6062 38.7324 44.2926 39.6908L43.2719 39.1804V33.1542H47.3319C49.4051 33.1622 51.3984 32.3549 52.8817 30.9063C54.365 29.4577 55.2194 27.4841 55.2604 25.4112V25.33C55.2618 22.9473 54.5469 20.6193 53.2086 18.648C51.8703 16.6767 49.9703 15.1532 47.7552 14.2752ZM7.27705 43.397C6.79755 43.397 6.32882 43.2548 5.93013 42.9884C5.53144 42.722 5.2207 42.3434 5.0372 41.9004C4.8537 41.4574 4.80569 40.9699 4.89924 40.4996C4.99278 40.0293 5.22369 39.5974 5.56274 39.2583C5.9018 38.9192 6.33379 38.6883 6.80408 38.5948C7.27436 38.5012 7.76183 38.5492 8.20483 38.7327C8.64783 38.9162 9.02647 39.227 9.29287 39.6257C9.55926 40.0244 9.70145 40.4931 9.70145 40.9726C9.70145 41.6156 9.44603 42.2323 8.99136 42.6869C8.5367 43.1416 7.92004 43.397 7.27705 43.397ZM29.8971 49.4754C29.8971 49.9549 29.7549 50.4236 29.4885 50.8223C29.2221 51.221 28.8434 51.5318 28.4004 51.7153C27.9574 51.8988 27.47 51.9468 26.9997 51.8532C26.5294 51.7597 26.0974 51.5288 25.7583 51.1897C25.4193 50.8507 25.1884 50.4187 25.0948 49.9484C25.0013 49.4781 25.0493 48.9906 25.2328 48.5476C25.4163 48.1046 25.727 47.726 26.1257 47.4596C26.5244 47.1932 26.9932 47.051 27.4727 47.051C27.791 47.051 28.1063 47.1137 28.4004 47.2355C28.6946 47.3574 28.9618 47.536 29.187 47.7611C29.4121 47.9862 29.5907 48.2535 29.7125 48.5476C29.8343 48.8418 29.8971 49.157 29.8971 49.4754ZM48.196 38.5482C48.6756 38.5482 49.1443 38.6904 49.543 38.9568C49.9417 39.2232 50.2524 39.6018 50.4359 40.0448C50.6194 40.4878 50.6674 40.9753 50.5739 41.4456C50.4803 41.9159 50.2494 42.3479 49.9104 42.6869C49.5713 43.026 49.1393 43.2569 48.669 43.3504C48.1987 43.444 47.7113 43.396 47.2683 43.2125C46.8253 43.029 46.4466 42.7182 46.1802 42.3195C45.9138 41.9208 45.7716 41.4521 45.7716 40.9726C45.7732 40.3301 46.0291 39.7143 46.4834 39.26C46.9378 38.8057 47.5535 38.5497 48.196 38.5482ZM53.5726 25.4054C53.5346 27.0372 52.8552 28.5883 51.6817 29.7227C50.5082 30.8572 48.935 31.4836 47.3028 31.4664H9.78845C8.14209 31.4818 6.55685 30.8435 5.38045 29.6916C4.09463 28.3904 3.1792 26.7697 2.72856 24.9967C2.27793 23.2238 2.30841 21.3627 2.81685 19.6054C3.428 17.4712 4.72469 15.5974 6.50672 14.2735C8.28876 12.9495 10.457 12.249 12.6769 12.28H13.4599L13.5179 11.5028C13.6794 9.47189 14.4457 7.53594 15.7179 5.9446C16.99 4.35327 18.7097 3.17952 20.6552 2.57471C22.6007 1.9699 24.6828 1.96177 26.6329 2.55137C28.5831 3.14097 30.3119 4.30125 31.5965 5.88261L31.9735 6.35241L32.5535 6.14941C34.027 5.62686 35.6009 5.45016 37.1536 5.63297C38.7063 5.81577 40.1962 6.35318 41.508 7.20364C42.8199 8.05411 43.9186 9.19486 44.7193 10.5377C45.5199 11.8806 46.001 13.3895 46.1255 14.948L46.1719 15.528L46.6939 15.7078C48.6984 16.3976 50.4382 17.695 51.6711 19.4195C52.9039 21.1441 53.5686 23.2101 53.5726 25.33V25.4054Z" fill="#ED1B24"/>
</svg>
