<svg width="58" height="58" viewBox="0 0 58 58" fill="none" xmlns="http://www.w3.org/2000/svg">
<path d="M48.7553 16.2747C48.5348 14.5615 47.9445 12.9168 47.0252 11.4545C46.1059 9.99212 44.8796 8.74717 43.4313 7.80592C41.983 6.86466 40.3474 6.2496 38.6377 6.00337C36.9281 5.75713 35.1853 5.88562 33.5303 6.37992C32.022 4.69248 30.0632 3.47081 27.8844 2.85859C25.7055 2.24637 23.3971 2.26905 21.2307 2.92397C19.0642 3.5789 17.1299 4.83882 15.6551 6.55558C14.1802 8.27233 13.2263 10.3745 12.9055 12.6149C10.4494 12.7406 8.09447 13.6329 6.17186 15.1664C4.24925 16.6999 2.85566 18.7975 2.18705 21.1641C1.60312 23.2101 1.57642 25.375 2.10973 27.4348C2.64303 29.4946 3.71697 31.3745 5.22045 32.8801C6.70655 34.3423 8.70943 35.1593 10.7943 35.1537H13.2245V41.1799L12.1805 41.6961C11.8669 40.7342 11.2098 39.9216 10.3348 39.4138C9.45975 38.906 8.42823 38.7385 7.43749 38.9435C6.44676 39.1485 5.56637 39.7115 4.9647 40.5249C4.36303 41.3383 4.08231 42.3449 4.17625 43.3522C4.27018 44.3596 4.73216 45.2969 5.47384 45.985C6.21552 46.6731 7.18483 47.0637 8.19638 47.082C9.20793 47.1002 10.1907 46.745 10.9568 46.0841C11.7228 45.4233 12.2184 44.5032 12.3487 43.4999L14.9007 42.1833V35.1537H27.8927V47.4091C26.8874 47.5531 25.9712 48.0644 25.3209 48.8443C24.6706 49.6242 24.3323 50.6174 24.3714 51.6322C24.4105 52.6469 24.8242 53.6111 25.5326 54.3387C26.241 55.0663 27.1939 55.5056 28.2072 55.5717C29.2205 55.6379 30.2224 55.3262 31.0194 54.697C31.8164 54.0677 32.352 53.1654 32.5227 52.1644C32.6934 51.1634 32.4872 50.1346 31.9438 49.2767C31.4004 48.4188 30.5584 47.7927 29.5805 47.5193V35.1537H42.5841V42.1949L45.1245 43.4999C45.256 44.4997 45.7512 45.416 46.5156 46.0736C47.28 46.7313 48.2599 47.0842 49.2681 47.065C50.2763 47.0458 51.2421 46.6558 51.9809 45.9695C52.7197 45.2832 53.1797 44.3488 53.273 43.3447C53.3664 42.3406 53.0865 41.3374 52.4868 40.5267C51.8872 39.716 51.0098 39.1547 50.0224 38.95C49.035 38.7453 48.0068 38.9116 47.1343 39.4171C46.2618 39.9226 45.6062 40.7319 45.2927 41.6903L44.2719 41.1799V35.1537H48.3319C50.4051 35.1617 52.3984 34.3544 53.8817 32.9058C55.365 31.4572 56.2194 29.4836 56.2605 27.4107V27.3295C56.2618 24.9468 55.5469 22.6188 54.2086 20.6475C52.8703 18.6762 50.9703 17.1527 48.7553 16.2747ZM8.27705 45.3965C7.79755 45.3965 7.32882 45.2543 6.93013 44.9879C6.53144 44.7215 6.2207 44.3429 6.0372 43.8999C5.8537 43.4569 5.80569 42.9694 5.89924 42.4991C5.99278 42.0289 6.22369 41.5969 6.56274 41.2578C6.9018 40.9187 7.33379 40.6878 7.80408 40.5943C8.27436 40.5008 8.76183 40.5488 9.20483 40.7323C9.64783 40.9158 10.0265 41.2265 10.2929 41.6252C10.5593 42.0239 10.7015 42.4926 10.7015 42.9721C10.7015 43.6151 10.446 44.2318 9.99136 44.6864C9.5367 45.1411 8.92004 45.3965 8.27705 45.3965ZM30.8971 51.4749C30.8971 51.9544 30.7549 52.4231 30.4885 52.8218C30.2221 53.2205 29.8434 53.5313 29.4004 53.7148C28.9574 53.8983 28.47 53.9463 27.9997 53.8527C27.5294 53.7592 27.0974 53.5283 26.7583 53.1892C26.4193 52.8502 26.1884 52.4182 26.0948 51.9479C26.0013 51.4776 26.0493 50.9901 26.2328 50.5471C26.4163 50.1041 26.727 49.7255 27.1257 49.4591C27.5244 49.1927 27.9932 49.0505 28.4727 49.0505C28.791 49.0505 29.1063 49.1132 29.4004 49.2351C29.6946 49.3569 29.9618 49.5355 30.187 49.7606C30.4121 49.9857 30.5907 50.253 30.7125 50.5471C30.8343 50.8413 30.8971 51.1565 30.8971 51.4749ZM49.1961 40.5477C49.6756 40.5477 50.1443 40.6899 50.543 40.9563C50.9417 41.2227 51.2524 41.6013 51.4359 42.0443C51.6194 42.4873 51.6674 42.9748 51.5739 43.4451C51.4803 43.9154 51.2494 44.3474 50.9104 44.6864C50.5713 45.0255 50.1393 45.2564 49.669 45.3499C49.1987 45.4435 48.7113 45.3955 48.2683 45.212C47.8253 45.0285 47.4466 44.7177 47.1802 44.319C46.9138 43.9203 46.7717 43.4516 46.7717 42.9721C46.7732 42.3296 47.0291 41.7138 47.4834 41.2595C47.9378 40.8052 48.5535 40.5492 49.1961 40.5477ZM54.5727 27.4049C54.5346 29.0367 53.8552 30.5878 52.6817 31.7222C51.5082 32.8567 49.935 33.4831 48.3029 33.4659H10.7885C9.14209 33.4813 7.55685 32.843 6.38045 31.6911C5.09463 30.3899 4.1792 28.7692 3.72857 26.9963C3.27793 25.2233 3.30841 23.3622 3.81685 21.6049C4.428 19.4707 5.72469 17.5969 7.50672 16.273C9.28876 14.9491 11.457 14.2485 13.6769 14.2795H14.4599L14.5179 13.5023C14.6794 11.4714 15.4457 9.53545 16.7179 7.94411C17.99 6.35278 19.7097 5.17903 21.6552 4.57422C23.6007 3.96941 25.6828 3.96128 27.6329 4.55088C29.5831 5.14048 31.3119 6.30076 32.5965 7.88212L32.9735 8.35192L33.5535 8.14892C35.027 7.62638 36.6009 7.44968 38.1536 7.63248C39.7063 7.81528 41.1962 8.35269 42.508 9.20316C43.8199 10.0536 44.9186 11.1944 45.7193 12.5372C46.5199 13.8801 47.001 15.3891 47.1255 16.9475L47.1719 17.5275L47.6939 17.7073C49.6984 18.3971 51.4382 19.6945 52.6711 21.4191C53.9039 23.1436 54.5686 25.2096 54.5727 27.3295V27.4049Z" fill="#ED1B24"/>
</svg>
