<svg width="35" height="31" viewBox="0 0 35 31" fill="none" xmlns="http://www.w3.org/2000/svg">
<path d="M17.1326 5.18359C15.8159 5.18366 14.5288 5.54322 13.4341 6.21681C12.3393 6.8904 11.4861 7.84776 10.9823 8.96784C10.4784 10.0879 10.3466 11.3204 10.6035 12.5095C10.8604 13.6985 11.4945 14.7907 12.4255 15.648C13.3565 16.5052 14.5427 17.0891 15.8341 17.3256C17.1255 17.5621 18.464 17.4408 19.6805 16.9768C20.8969 16.5129 21.9367 15.7273 22.6682 14.7193C23.3998 13.7113 23.7903 12.5262 23.7903 11.3138C23.7884 9.68856 23.0863 8.13037 21.8381 6.98112C20.59 5.83188 18.8977 5.18543 17.1326 5.18359ZM17.1326 16.0595C16.1131 16.0595 15.1166 15.781 14.269 15.2595C13.4214 14.7379 12.7608 13.9967 12.3707 13.1294C11.9806 12.2622 11.8786 11.3079 12.0776 10.3873C12.2765 9.46664 12.7675 8.621 13.4883 7.95728C14.2092 7.29356 15.1277 6.84158 16.1276 6.65849C17.1274 6.47539 18.1638 6.56941 19.1056 6.92866C20.0475 7.2879 20.8525 7.89623 21.4188 8.67672C21.9852 9.45721 22.2875 10.3748 22.2875 11.3135C22.2859 12.5719 21.7423 13.7783 20.7759 14.668C19.8095 15.5578 18.4992 16.0582 17.1326 16.0595Z" fill="#ED1B24"/>
<path d="M20.3768 10.718L15.8804 8.26554C15.7647 8.20328 15.6333 8.16999 15.4994 8.16897C15.3654 8.16795 15.2334 8.19924 15.1166 8.25973C15.0003 8.31975 14.9032 8.4069 14.8351 8.51242C14.767 8.61794 14.7302 8.73811 14.7285 8.86085V13.7657C14.7307 13.8885 14.7678 14.0087 14.8361 14.1142C14.9044 14.2197 15.0015 14.3069 15.1178 14.3671C15.2341 14.4273 15.3655 14.4584 15.499 14.4573C15.6324 14.4562 15.7631 14.4229 15.8782 14.3607L20.3757 11.9083C20.488 11.8472 20.5811 11.7602 20.6458 11.6558C20.7105 11.5515 20.7446 11.4335 20.7447 11.3133C20.7448 11.1932 20.711 11.0751 20.6464 10.9706C20.5819 10.8662 20.489 10.779 20.3768 10.7177V10.718ZM16.2314 12.5517V10.0747L18.5019 11.3132L16.2314 12.5517Z" fill="#ED1B24"/>
<path d="M34.2656 0.691901C34.2656 0.508398 34.1865 0.33241 34.0455 0.202653C33.9046 0.0728965 33.7135 0 33.5142 0H0.751439C0.552145 0 0.361014 0.0728965 0.220091 0.202653C0.0791692 0.33241 0 0.508398 0 0.691901V21.9333C0 22.1168 0.0791692 22.2928 0.220091 22.4225C0.361014 22.5523 0.552145 22.6252 0.751439 22.6252H33.5142C33.7135 22.6252 33.9046 22.5523 34.0455 22.4225C34.1865 22.2928 34.2656 22.1168 34.2656 21.9333V0.691901ZM1.50288 1.3838H32.7627V21.2414H1.50288V1.3838ZM0.751439 28.368H7.66468V29.9007C7.66468 30.2828 8.02537 30.582 8.44016 30.582H11.4519C11.5484 30.5827 11.6441 30.5654 11.7332 30.5311C11.8222 30.4969 11.9028 30.4464 11.9702 30.3828C12.0376 30.3192 12.0903 30.2437 12.1252 30.1608C12.1601 30.078 12.1765 29.9895 12.1733 29.9007V28.368H33.5142C33.7135 28.368 33.9046 28.2951 34.0455 28.1653C34.1865 28.0355 34.2656 27.8596 34.2656 27.6761C34.2656 27.4925 34.1865 27.3166 34.0455 27.1868C33.9046 27.057 33.7135 26.9842 33.5142 26.9842H12.1733V24.8941C12.1764 24.8054 12.1599 24.7172 12.125 24.6346C12.09 24.552 12.0372 24.4767 11.9698 24.4134C11.9024 24.3501 11.8217 24.3 11.7327 24.2662C11.6437 24.2324 11.5482 24.2155 11.4519 24.2165H8.44016C8.02522 24.2165 7.66468 24.512 7.66468 24.8941V26.9842H0.751439C0.552145 26.9842 0.361014 27.057 0.220091 27.1868C0.0791692 27.3166 0 27.4925 0 27.6761C0 27.8596 0.0791692 28.0355 0.220091 28.1653C0.361014 28.2951 0.552145 28.368 0.751439 28.368ZM9.16756 25.6003H10.6704V29.1982H9.16756V25.6003Z" fill="#ED1B24"/>
</svg>
