<svg width="44" height="44" viewBox="0 0 44 44" fill="none" xmlns="http://www.w3.org/2000/svg">
<path d="M39.5 1H4.5C3.57174 1 2.6815 1.36875 2.02513 2.02513C1.36875 2.6815 1 3.57174 1 4.5V39.5C1 40.4283 1.36875 41.3185 2.02513 41.9749C2.6815 42.6312 3.57174 43 4.5 43H39.5C40.4283 43 41.3185 42.6312 41.9749 41.9749C42.6312 41.3185 43 40.4283 43 39.5V4.5C43 3.57174 42.6312 2.6815 41.9749 2.02513C41.3185 1.36875 40.4283 1 39.5 1Z" stroke="#ED1B24" stroke-width="2"/>
<path d="M25.85 8.00004C23.7232 8.00004 22 9.67421 22 11.738C22 15.4772 26.55 18.8757 29 19.6667C31.45 18.8757 36 15.4784 36 11.738C36 9.67304 34.2768 8.00004 32.15 8.00004C31.5367 7.99714 30.9315 8.13963 30.384 8.41584C29.8364 8.69205 29.3621 9.09411 29 9.58904C28.6379 9.09411 28.1636 8.69205 27.616 8.41584C27.0685 8.13963 26.4633 7.99714 25.85 8.00004Z" stroke="#ED1B24" stroke-width="2" stroke-linecap="round" stroke-linejoin="round"/>
</svg>
