<svg width="50" height="36" viewBox="0 0 50 36" fill="none" xmlns="http://www.w3.org/2000/svg">
<mask id="path-1-inside-1_618_517" fill="white">
<path fill-rule="evenodd" clip-rule="evenodd" d="M36.2491 0C37.9658 0 39.3856 0.9765 40.4251 2.0025C41.5073 3.06675 42.4996 4.49775 43.3816 6.075C45.1523 9.2385 46.6936 13.3718 47.7128 17.4555C48.7253 21.5078 49.2856 25.74 48.9278 29.0678C48.5678 32.409 46.8466 36 42.9991 36C39.6781 36 37.0321 34.29 34.8676 32.5552L34.0778 31.905L32.9708 30.9712L31.9718 30.1432C29.6791 28.287 27.6428 27 24.9991 27C22.3553 27 20.3191 28.287 18.0263 30.1432L17.0273 30.9712L15.9203 31.905L15.1328 32.5552C12.9638 34.29 10.3178 36 6.99906 36C3.14931 36 1.42806 32.409 1.07031 29.0678C0.714808 25.7378 1.27281 21.5078 2.28531 17.4533C3.30456 13.3718 4.84581 9.24075 6.61656 6.07275C7.49856 4.49775 8.49081 3.06675 9.57306 2.00025C10.6126 0.9765 12.0323 0 13.7491 0C14.9078 0 16.0396 0.27675 17.1533 0.6075L18.4853 1.01475C18.7081 1.08225 18.9286 1.14975 19.1491 1.2105C21.0953 1.7685 23.0866 2.25 24.9991 2.25C26.9116 2.25 28.9028 1.7685 30.8491 1.2105L32.8403 0.60975C33.9608 0.279 35.1016 0 36.2491 0ZM36.2491 4.5C35.3873 4.5 34.4873 4.761 33.6143 5.04675L32.5838 5.3865C32.4189 5.44013 32.2531 5.49114 32.0866 5.5395C30.0953 6.1065 27.5866 6.75 24.9991 6.75C22.4116 6.75 19.9028 6.1065 17.9116 5.5395L17.4166 5.3865L16.3838 5.04675C15.5108 4.75875 14.6108 4.5 13.7491 4.5C12.8086 4.6755 11.9648 5.81625 11.3281 6.87375L10.9726 7.4925L10.5451 8.271C9.01056 11.0115 7.59756 14.751 6.65256 18.5445C5.76381 22.0927 5.33181 25.4902 5.49606 28.0192L5.55456 28.6785L5.59956 29.0745L5.66706 29.5425C5.82231 30.4447 6.15756 31.5 6.99906 31.5C8.82606 31.5 10.3516 30.591 12.2483 29.0835L13.1551 28.3455L14.8651 26.9145L15.6391 26.2845C18.0331 24.3878 21.0278 22.5 24.9991 22.5C28.9703 22.5 31.9651 24.39 34.3591 26.2845L35.1353 26.9145L36.8453 28.3455L37.7498 29.0835C39.6466 30.591 41.1698 31.5 42.9991 31.5C43.7641 31.5 44.1106 30.6292 44.2838 29.7922L44.3693 29.3018L44.4526 28.5885C44.7293 26.01 44.3018 22.3672 43.3478 18.5467C42.4793 15.0682 41.2193 11.6347 39.8333 8.97525L39.0256 7.49025L38.6701 6.876C38.0333 5.81625 37.1896 4.6755 36.2491 4.5ZM17.1241 9C18.6159 9 20.0466 9.59263 21.1015 10.6475C22.1564 11.7024 22.7491 13.1332 22.7491 14.625C22.7491 16.1168 22.1564 17.5476 21.1015 18.6025C20.0466 19.6574 18.6159 20.25 17.1241 20.25C15.6322 20.25 14.2015 19.6574 13.1466 18.6025C12.0917 17.5476 11.4991 16.1168 11.4991 14.625C11.4991 13.1332 12.0917 11.7024 13.1466 10.6475C14.2015 9.59263 15.6322 9 17.1241 9ZM32.8741 9C33.4252 9.00007 33.9571 9.2024 34.3689 9.56861C34.7807 9.93482 35.0438 10.4394 35.1083 10.9868L35.1241 11.25V12.375H36.2491C36.8225 12.3756 37.3741 12.5952 37.7911 12.9889C38.2081 13.3826 38.4591 13.9206 38.4927 14.4931C38.5263 15.0656 38.34 15.6294 37.972 16.0691C37.6039 16.5089 37.0818 16.7915 36.5123 16.8592L36.2491 16.875H35.1241V18C35.1234 18.5735 34.9038 19.1251 34.5102 19.5421C34.1165 19.9591 33.5784 20.21 33.0059 20.2436C32.4334 20.2772 31.8697 20.091 31.4299 19.7229C30.9902 19.3548 30.7075 18.8327 30.6398 18.2632L30.6241 18V16.875H29.4991C28.9256 16.8744 28.374 16.6548 27.957 16.2611C27.54 15.8674 27.289 15.3294 27.2554 14.7569C27.2218 14.1844 27.4081 13.6206 27.7762 13.1809C28.1442 12.7411 28.6663 12.4585 29.2358 12.3907L29.4991 12.375H30.6241V11.25C30.6241 10.6533 30.8611 10.081 31.2831 9.65901C31.705 9.23705 32.2773 9 32.8741 9ZM17.1241 13.5C16.8257 13.5 16.5395 13.6185 16.3286 13.8295C16.1176 14.0405 15.9991 14.3266 15.9991 14.625C15.9991 14.9234 16.1176 15.2095 16.3286 15.4205C16.5395 15.6315 16.8257 15.75 17.1241 15.75C17.4224 15.75 17.7086 15.6315 17.9196 15.4205C18.1305 15.2095 18.2491 14.9234 18.2491 14.625C18.2491 14.3266 18.1305 14.0405 17.9196 13.8295C17.7086 13.6185 17.4224 13.5 17.1241 13.5Z"/>
</mask>
<path fill-rule="evenodd" clip-rule="evenodd" d="M36.2491 0C37.9658 0 39.3856 0.9765 40.4251 2.0025C41.5073 3.06675 42.4996 4.49775 43.3816 6.075C45.1523 9.2385 46.6936 13.3718 47.7128 17.4555C48.7253 21.5078 49.2856 25.74 48.9278 29.0678C48.5678 32.409 46.8466 36 42.9991 36C39.6781 36 37.0321 34.29 34.8676 32.5552L34.0778 31.905L32.9708 30.9712L31.9718 30.1432C29.6791 28.287 27.6428 27 24.9991 27C22.3553 27 20.3191 28.287 18.0263 30.1432L17.0273 30.9712L15.9203 31.905L15.1328 32.5552C12.9638 34.29 10.3178 36 6.99906 36C3.14931 36 1.42806 32.409 1.07031 29.0678C0.714808 25.7378 1.27281 21.5078 2.28531 17.4533C3.30456 13.3718 4.84581 9.24075 6.61656 6.07275C7.49856 4.49775 8.49081 3.06675 9.57306 2.00025C10.6126 0.9765 12.0323 0 13.7491 0C14.9078 0 16.0396 0.27675 17.1533 0.6075L18.4853 1.01475C18.7081 1.08225 18.9286 1.14975 19.1491 1.2105C21.0953 1.7685 23.0866 2.25 24.9991 2.25C26.9116 2.25 28.9028 1.7685 30.8491 1.2105L32.8403 0.60975C33.9608 0.279 35.1016 0 36.2491 0ZM36.2491 4.5C35.3873 4.5 34.4873 4.761 33.6143 5.04675L32.5838 5.3865C32.4189 5.44013 32.2531 5.49114 32.0866 5.5395C30.0953 6.1065 27.5866 6.75 24.9991 6.75C22.4116 6.75 19.9028 6.1065 17.9116 5.5395L17.4166 5.3865L16.3838 5.04675C15.5108 4.75875 14.6108 4.5 13.7491 4.5C12.8086 4.6755 11.9648 5.81625 11.3281 6.87375L10.9726 7.4925L10.5451 8.271C9.01056 11.0115 7.59756 14.751 6.65256 18.5445C5.76381 22.0927 5.33181 25.4902 5.49606 28.0192L5.55456 28.6785L5.59956 29.0745L5.66706 29.5425C5.82231 30.4447 6.15756 31.5 6.99906 31.5C8.82606 31.5 10.3516 30.591 12.2483 29.0835L13.1551 28.3455L14.8651 26.9145L15.6391 26.2845C18.0331 24.3878 21.0278 22.5 24.9991 22.5C28.9703 22.5 31.9651 24.39 34.3591 26.2845L35.1353 26.9145L36.8453 28.3455L37.7498 29.0835C39.6466 30.591 41.1698 31.5 42.9991 31.5C43.7641 31.5 44.1106 30.6292 44.2838 29.7922L44.3693 29.3018L44.4526 28.5885C44.7293 26.01 44.3018 22.3672 43.3478 18.5467C42.4793 15.0682 41.2193 11.6347 39.8333 8.97525L39.0256 7.49025L38.6701 6.876C38.0333 5.81625 37.1896 4.6755 36.2491 4.5ZM17.1241 9C18.6159 9 20.0466 9.59263 21.1015 10.6475C22.1564 11.7024 22.7491 13.1332 22.7491 14.625C22.7491 16.1168 22.1564 17.5476 21.1015 18.6025C20.0466 19.6574 18.6159 20.25 17.1241 20.25C15.6322 20.25 14.2015 19.6574 13.1466 18.6025C12.0917 17.5476 11.4991 16.1168 11.4991 14.625C11.4991 13.1332 12.0917 11.7024 13.1466 10.6475C14.2015 9.59263 15.6322 9 17.1241 9ZM32.8741 9C33.4252 9.00007 33.9571 9.2024 34.3689 9.56861C34.7807 9.93482 35.0438 10.4394 35.1083 10.9868L35.1241 11.25V12.375H36.2491C36.8225 12.3756 37.3741 12.5952 37.7911 12.9889C38.2081 13.3826 38.4591 13.9206 38.4927 14.4931C38.5263 15.0656 38.34 15.6294 37.972 16.0691C37.6039 16.5089 37.0818 16.7915 36.5123 16.8592L36.2491 16.875H35.1241V18C35.1234 18.5735 34.9038 19.1251 34.5102 19.5421C34.1165 19.9591 33.5784 20.21 33.0059 20.2436C32.4334 20.2772 31.8697 20.091 31.4299 19.7229C30.9902 19.3548 30.7075 18.8327 30.6398 18.2632L30.6241 18V16.875H29.4991C28.9256 16.8744 28.374 16.6548 27.957 16.2611C27.54 15.8674 27.289 15.3294 27.2554 14.7569C27.2218 14.1844 27.4081 13.6206 27.7762 13.1809C28.1442 12.7411 28.6663 12.4585 29.2358 12.3907L29.4991 12.375H30.6241V11.25C30.6241 10.6533 30.8611 10.081 31.2831 9.65901C31.705 9.23705 32.2773 9 32.8741 9ZM17.1241 13.5C16.8257 13.5 16.5395 13.6185 16.3286 13.8295C16.1176 14.0405 15.9991 14.3266 15.9991 14.625C15.9991 14.9234 16.1176 15.2095 16.3286 15.4205C16.5395 15.6315 16.8257 15.75 17.1241 15.75C17.4224 15.75 17.7086 15.6315 17.9196 15.4205C18.1305 15.2095 18.2491 14.9234 18.2491 14.625C18.2491 14.3266 18.1305 14.0405 17.9196 13.8295C17.7086 13.6185 17.4224 13.5 17.1241 13.5Z" fill="#ED1B24" stroke="#262626" stroke-width="3" mask="url(#path-1-inside-1_618_517)"/>
</svg>
