<svg width="54" height="54" viewBox="0 0 54 54" fill="none" xmlns="http://www.w3.org/2000/svg">
<mask id="path-1-inside-1_323_478" fill="white">
<path fill-rule="evenodd" clip-rule="evenodd" d="M38.25 9C39.9668 9 41.3865 9.9765 42.426 11.0025C43.5083 12.0667 44.5005 13.4977 45.3825 15.075C47.1533 18.2385 48.6945 22.3718 49.7138 26.4555C50.7263 30.5078 51.2865 34.74 50.9288 38.0678C50.5688 41.409 48.8475 45 45 45C41.679 45 39.033 43.29 36.8685 41.5552L36.0788 40.905L34.9718 39.9712L33.9728 39.1432C31.68 37.287 29.6438 36 27 36C24.3563 36 22.32 37.287 20.0273 39.1432L19.0283 39.9712L17.9213 40.905L17.1338 41.5552C14.9648 43.29 12.3188 45 9.00003 45C5.15028 45 3.42903 41.409 3.07128 38.0678C2.71578 34.7378 3.27378 30.5078 4.28628 26.4532C5.30553 22.3717 6.84678 18.2407 8.61753 15.0727C9.49953 13.4977 10.4918 12.0667 11.574 11.0002C12.6135 9.9765 14.0333 9 15.75 9C16.9088 9 18.0405 9.27675 19.1543 9.6075L20.4863 10.0148C20.709 10.0823 20.9295 10.1498 21.15 10.2105C23.0963 10.7685 25.0875 11.25 27 11.25C28.9125 11.25 30.9038 10.7685 32.85 10.2105L34.8413 9.60975C35.9618 9.279 37.1025 9 38.25 9ZM38.25 13.5C37.3883 13.5 36.4883 13.761 35.6153 14.0468L34.5848 14.3865C34.4199 14.4401 34.2541 14.4911 34.0875 14.5395C32.0963 15.1065 29.5875 15.75 27 15.75C24.4125 15.75 21.9038 15.1065 19.9125 14.5395L19.4175 14.3865L18.3848 14.0468C17.5118 13.7588 16.6118 13.5 15.75 13.5C14.8095 13.6755 13.9658 14.8162 13.329 15.8737L12.9735 16.4925L12.546 17.271C11.0115 20.0115 9.59853 23.751 8.65353 27.5445C7.76478 31.0927 7.33278 34.4902 7.49703 37.0192L7.55553 37.6785L7.60053 38.0745L7.66803 38.5425C7.82328 39.4447 8.15853 40.5 9.00003 40.5C10.827 40.5 12.3525 39.591 14.2493 38.0835L15.156 37.3455L16.866 35.9145L17.64 35.2845C20.034 33.3878 23.0288 31.5 27 31.5C30.9713 31.5 33.966 33.39 36.36 35.2845L37.1363 35.9145L38.8463 37.3455L39.7508 38.0835C41.6475 39.591 43.1708 40.5 45 40.5C45.765 40.5 46.1115 39.6292 46.2848 38.7922L46.3703 38.3018L46.4535 37.5885C46.7303 35.01 46.3028 31.3672 45.3488 27.5468C44.4803 24.0683 43.2203 20.6347 41.8343 17.9752L41.0265 16.4902L40.671 15.876C40.0343 14.8163 39.1905 13.6755 38.25 13.5ZM19.125 18C20.6169 18 22.0476 18.5926 23.1025 19.6475C24.1574 20.7024 24.75 22.1332 24.75 23.625C24.75 25.1168 24.1574 26.5476 23.1025 27.6025C22.0476 28.6574 20.6169 29.25 19.125 29.25C17.6332 29.25 16.2025 28.6574 15.1476 27.6025C14.0927 26.5476 13.5 25.1168 13.5 23.625C13.5 22.1332 14.0927 20.7024 15.1476 19.6475C16.2025 18.5926 17.6332 18 19.125 18ZM34.875 18C35.4261 18.0001 35.958 18.2024 36.3699 18.5686C36.7817 18.9348 37.0448 19.4394 37.1093 19.9868L37.125 20.25V21.375H38.25C38.8235 21.3756 39.3751 21.5952 39.7921 21.9889C40.2091 22.3826 40.4601 22.9206 40.4937 23.4931C40.5273 24.0656 40.341 24.6294 39.9729 25.0691C39.6049 25.5089 39.0828 25.7915 38.5133 25.8593L38.25 25.875H37.125V27C37.1244 27.5735 36.9048 28.1251 36.5111 28.5421C36.1174 28.9591 35.5794 29.21 35.0069 29.2436C34.4344 29.2772 33.8707 29.091 33.4309 28.7229C32.9911 28.3548 32.7085 27.8327 32.6408 27.2632L32.625 27V25.875H31.5C30.9266 25.8744 30.375 25.6548 29.958 25.2611C29.5409 24.8674 29.29 24.3294 29.2564 23.7569C29.2228 23.1844 29.4091 22.6206 29.7771 22.1809C30.1452 21.7411 30.6673 21.4585 31.2368 21.3907L31.5 21.375H32.625V20.25C32.625 19.6533 32.8621 19.081 33.284 18.659C33.706 18.2371 34.2783 18 34.875 18ZM19.125 22.5C18.8267 22.5 18.5405 22.6185 18.3295 22.8295C18.1186 23.0405 18 23.3266 18 23.625C18 23.9234 18.1186 24.2095 18.3295 24.4205C18.5405 24.6315 18.8267 24.75 19.125 24.75C19.4234 24.75 19.7096 24.6315 19.9205 24.4205C20.1315 24.2095 20.25 23.9234 20.25 23.625C20.25 23.3266 20.1315 23.0405 19.9205 22.8295C19.7096 22.6185 19.4234 22.5 19.125 22.5Z"/>
</mask>
<path fill-rule="evenodd" clip-rule="evenodd" d="M38.25 9C39.9668 9 41.3865 9.9765 42.426 11.0025C43.5083 12.0667 44.5005 13.4977 45.3825 15.075C47.1533 18.2385 48.6945 22.3718 49.7138 26.4555C50.7263 30.5078 51.2865 34.74 50.9288 38.0678C50.5688 41.409 48.8475 45 45 45C41.679 45 39.033 43.29 36.8685 41.5552L36.0788 40.905L34.9718 39.9712L33.9728 39.1432C31.68 37.287 29.6438 36 27 36C24.3563 36 22.32 37.287 20.0273 39.1432L19.0283 39.9712L17.9213 40.905L17.1338 41.5552C14.9648 43.29 12.3188 45 9.00003 45C5.15028 45 3.42903 41.409 3.07128 38.0678C2.71578 34.7378 3.27378 30.5078 4.28628 26.4532C5.30553 22.3717 6.84678 18.2407 8.61753 15.0727C9.49953 13.4977 10.4918 12.0667 11.574 11.0002C12.6135 9.9765 14.0333 9 15.75 9C16.9088 9 18.0405 9.27675 19.1543 9.6075L20.4863 10.0148C20.709 10.0823 20.9295 10.1498 21.15 10.2105C23.0963 10.7685 25.0875 11.25 27 11.25C28.9125 11.25 30.9038 10.7685 32.85 10.2105L34.8413 9.60975C35.9618 9.279 37.1025 9 38.25 9ZM38.25 13.5C37.3883 13.5 36.4883 13.761 35.6153 14.0468L34.5848 14.3865C34.4199 14.4401 34.2541 14.4911 34.0875 14.5395C32.0963 15.1065 29.5875 15.75 27 15.75C24.4125 15.75 21.9038 15.1065 19.9125 14.5395L19.4175 14.3865L18.3848 14.0468C17.5118 13.7588 16.6118 13.5 15.75 13.5C14.8095 13.6755 13.9658 14.8162 13.329 15.8737L12.9735 16.4925L12.546 17.271C11.0115 20.0115 9.59853 23.751 8.65353 27.5445C7.76478 31.0927 7.33278 34.4902 7.49703 37.0192L7.55553 37.6785L7.60053 38.0745L7.66803 38.5425C7.82328 39.4447 8.15853 40.5 9.00003 40.5C10.827 40.5 12.3525 39.591 14.2493 38.0835L15.156 37.3455L16.866 35.9145L17.64 35.2845C20.034 33.3878 23.0288 31.5 27 31.5C30.9713 31.5 33.966 33.39 36.36 35.2845L37.1363 35.9145L38.8463 37.3455L39.7508 38.0835C41.6475 39.591 43.1708 40.5 45 40.5C45.765 40.5 46.1115 39.6292 46.2848 38.7922L46.3703 38.3018L46.4535 37.5885C46.7303 35.01 46.3028 31.3672 45.3488 27.5468C44.4803 24.0683 43.2203 20.6347 41.8343 17.9752L41.0265 16.4902L40.671 15.876C40.0343 14.8163 39.1905 13.6755 38.25 13.5ZM19.125 18C20.6169 18 22.0476 18.5926 23.1025 19.6475C24.1574 20.7024 24.75 22.1332 24.75 23.625C24.75 25.1168 24.1574 26.5476 23.1025 27.6025C22.0476 28.6574 20.6169 29.25 19.125 29.25C17.6332 29.25 16.2025 28.6574 15.1476 27.6025C14.0927 26.5476 13.5 25.1168 13.5 23.625C13.5 22.1332 14.0927 20.7024 15.1476 19.6475C16.2025 18.5926 17.6332 18 19.125 18ZM34.875 18C35.4261 18.0001 35.958 18.2024 36.3699 18.5686C36.7817 18.9348 37.0448 19.4394 37.1093 19.9868L37.125 20.25V21.375H38.25C38.8235 21.3756 39.3751 21.5952 39.7921 21.9889C40.2091 22.3826 40.4601 22.9206 40.4937 23.4931C40.5273 24.0656 40.341 24.6294 39.9729 25.0691C39.6049 25.5089 39.0828 25.7915 38.5133 25.8593L38.25 25.875H37.125V27C37.1244 27.5735 36.9048 28.1251 36.5111 28.5421C36.1174 28.9591 35.5794 29.21 35.0069 29.2436C34.4344 29.2772 33.8707 29.091 33.4309 28.7229C32.9911 28.3548 32.7085 27.8327 32.6408 27.2632L32.625 27V25.875H31.5C30.9266 25.8744 30.375 25.6548 29.958 25.2611C29.5409 24.8674 29.29 24.3294 29.2564 23.7569C29.2228 23.1844 29.4091 22.6206 29.7771 22.1809C30.1452 21.7411 30.6673 21.4585 31.2368 21.3907L31.5 21.375H32.625V20.25C32.625 19.6533 32.8621 19.081 33.284 18.659C33.706 18.2371 34.2783 18 34.875 18ZM19.125 22.5C18.8267 22.5 18.5405 22.6185 18.3295 22.8295C18.1186 23.0405 18 23.3266 18 23.625C18 23.9234 18.1186 24.2095 18.3295 24.4205C18.5405 24.6315 18.8267 24.75 19.125 24.75C19.4234 24.75 19.7096 24.6315 19.9205 24.4205C20.1315 24.2095 20.25 23.9234 20.25 23.625C20.25 23.3266 20.1315 23.0405 19.9205 22.8295C19.7096 22.6185 19.4234 22.5 19.125 22.5Z" fill="#ED1B24" stroke="#262626" stroke-width="3" mask="url(#path-1-inside-1_323_478)"/>
</svg>
