<svg width="47" height="48" viewBox="0 0 47 48" fill="none" xmlns="http://www.w3.org/2000/svg">
<path d="M23.493 0C23.7079 0 23.9141 0.0842854 24.066 0.234315C24.218 0.384344 24.3034 0.587827 24.3034 0.8V4.8C24.3034 5.01217 24.218 5.21566 24.066 5.36569C23.9141 5.51571 23.7079 5.6 23.493 5.6C23.2781 5.6 23.072 5.51571 22.92 5.36569C22.7681 5.21566 22.6827 5.01217 22.6827 4.8V0.8C22.6827 0.587827 22.7681 0.384344 22.92 0.234315C23.072 0.0842854 23.2781 0 23.493 0ZM9.74362 10.7586C9.81844 10.8347 9.90784 10.8954 10.0066 10.9371C10.1054 10.9788 10.2116 11.0007 10.3191 11.0015C10.4265 11.0024 10.5331 10.9821 10.6325 10.9418C10.7319 10.9016 10.8223 10.8423 10.8983 10.7673C10.9742 10.6923 11.0344 10.6031 11.0751 10.5049C11.1159 10.4068 11.1364 10.3016 11.1356 10.1955C11.1348 10.0894 11.1126 9.98457 11.0704 9.88703C11.0281 9.78949 10.9666 9.70122 10.8895 9.62736L8.02368 6.8C7.94879 6.72417 7.85939 6.66377 7.76068 6.62231C7.66196 6.58085 7.55588 6.55916 7.44861 6.55849C7.34133 6.55782 7.23498 6.57818 7.13574 6.6184C7.0365 6.65862 6.94633 6.7179 6.87048 6.79279C6.79462 6.86768 6.73458 6.95669 6.69384 7.05467C6.6531 7.15264 6.63247 7.25763 6.63315 7.36354C6.63383 7.46945 6.6558 7.57417 6.6978 7.67163C6.73979 7.76909 6.80097 7.85734 6.87778 7.93128L9.74362 10.7586ZM4.86182 22.4054L0.810135 22.407C0.59522 22.4071 0.389129 22.4914 0.237199 22.6415C0.0852693 22.7916 -5.37034e-05 22.9951 2.53598e-08 23.2072C5.37541e-05 23.4194 0.0854798 23.6229 0.237486 23.7729C0.389491 23.9229 0.595626 24.0071 0.81054 24.007L4.86182 24.0054C4.96824 24.0054 5.07361 23.9847 5.17191 23.9445C5.27022 23.9042 5.35953 23.8453 5.43476 23.771C5.50999 23.6967 5.56966 23.6085 5.61035 23.5114C5.65105 23.4143 5.67199 23.3103 5.67196 23.2052C5.67193 23.1002 5.65095 22.9962 5.6102 22.8991C5.56945 22.8021 5.50974 22.7139 5.43447 22.6396C5.35921 22.5653 5.26986 22.5064 5.17154 22.4663C5.07321 22.4261 4.96824 22.4054 4.86182 22.4054ZM37.2556 35.6414C37.1808 35.5653 37.0913 35.5046 36.9925 35.4629C36.8938 35.4212 36.7875 35.3993 36.6801 35.3985C36.5726 35.3976 36.4661 35.4179 36.3667 35.4582C36.2672 35.4984 36.1769 35.5577 36.1009 35.6327C36.0249 35.7077 35.9648 35.7969 35.9241 35.8951C35.8833 35.9932 35.8628 36.0984 35.8636 36.2045C35.8644 36.3106 35.8866 36.4154 35.9288 36.513C35.9711 36.6105 36.0325 36.6988 36.1097 36.7726L38.9755 39.6C39.0504 39.6758 39.1398 39.7362 39.2385 39.7777C39.3372 39.8191 39.4433 39.8408 39.5506 39.8415C39.6579 39.8422 39.7642 39.8218 39.8634 39.7816C39.9627 39.7414 40.0529 39.6821 40.1287 39.6072C40.2046 39.5323 40.2646 39.4433 40.3053 39.3453C40.3461 39.2474 40.3667 39.1424 40.366 39.0365C40.3654 38.9305 40.3434 38.8258 40.3014 38.7284C40.2594 38.6309 40.1982 38.5427 40.1214 38.4687L37.2556 35.6414ZM9.74362 35.6414L6.87778 38.4687C6.80097 38.5427 6.73979 38.6309 6.6978 38.7284C6.6558 38.8258 6.63383 38.9305 6.63315 39.0365C6.63247 39.1424 6.6531 39.2474 6.69384 39.3453C6.73458 39.4433 6.79462 39.5323 6.87048 39.6072C6.94633 39.6821 7.0365 39.7414 7.13574 39.7816C7.23498 39.8218 7.34133 39.8422 7.44861 39.8415C7.55588 39.8408 7.66196 39.8191 7.76068 39.7777C7.85939 39.7362 7.94879 39.6758 8.02368 39.6L10.8895 36.7726C10.9666 36.6988 11.0281 36.6105 11.0704 36.513C11.1126 36.4154 11.1348 36.3106 11.1356 36.2045C11.1364 36.0984 11.1159 35.9932 11.0751 35.8951C11.0344 35.7969 10.9742 35.7077 10.8983 35.6327C10.8223 35.5577 10.7319 35.4984 10.6325 35.4582C10.5331 35.4179 10.4265 35.3976 10.3191 35.3985C10.2116 35.3993 10.1054 35.4212 10.0066 35.4629C9.90784 35.5046 9.81844 35.5653 9.74362 35.6414ZM46.1891 22.393L42.1374 22.3946C41.9224 22.3946 41.7164 22.479 41.5644 22.629C41.4125 22.7791 41.3272 22.9826 41.3272 23.1948C41.3273 23.4069 41.4127 23.6104 41.5647 23.7604C41.7167 23.9104 41.9229 23.9946 42.1378 23.9946L46.1899 23.993C46.4048 23.9929 46.6109 23.9086 46.7628 23.7585C46.9147 23.6084 47.0001 23.4049 47 23.1928C46.9999 22.9806 46.9145 22.7771 46.7625 22.6271C46.6105 22.4771 46.404 22.3929 46.1891 22.393ZM36.6743 10.9851C36.7808 10.9853 36.8863 10.9646 36.9846 10.9244C37.083 10.8842 37.1724 10.8252 37.2476 10.7508L40.1119 7.92112C40.2639 7.771 40.3492 7.56743 40.3491 7.3552C40.3491 7.14297 40.2636 6.93946 40.1115 6.78944C39.9595 6.63942 39.7533 6.55519 39.5383 6.55526C39.3233 6.55534 39.1172 6.63972 38.9652 6.78984L36.101 9.61952C35.9877 9.73143 35.9105 9.87399 35.8793 10.0292C35.848 10.1844 35.8641 10.3453 35.9255 10.4914C35.9869 10.6376 36.0908 10.7625 36.224 10.8504C36.3573 10.9383 36.514 10.9852 36.6743 10.9851ZM35.9669 28.8922C37.1087 26.7542 37.6862 24.3665 37.6461 21.9499C37.6061 19.5333 36.9497 17.1656 35.7377 15.0656C34.5998 13.0464 32.9648 11.3429 30.9838 10.1125C29.0027 8.88203 26.7396 8.1643 24.4033 8.0256H24.4017C23.8003 7.9928 23.1974 7.9928 22.5959 8.0256C20.2596 8.1643 17.9964 8.88203 16.0154 10.1125C14.0344 11.3429 12.3994 13.0464 11.2615 15.0656C10.0494 17.1656 9.39309 19.5333 9.35304 21.9499C9.31298 24.3665 9.89053 26.7542 11.0323 28.8922L16.2066 38.5975V42.4C16.2083 43.8847 16.8065 45.3081 17.8699 46.3579C18.9333 47.4077 20.375 47.9983 21.8789 48H25.1203C26.6241 47.9983 28.0659 47.4077 29.1293 46.3579C30.1927 45.3081 30.7909 43.8847 30.7926 42.4V38.5975L35.9669 28.8922ZM17.8272 41.6V39.2H29.172V41.6H17.8272ZM12.6724 15.8523C13.6657 14.0574 15.1072 12.5429 16.86 11.4526C18.6129 10.3623 20.6189 9.7324 22.6876 9.62264C23.228 9.59296 23.7696 9.59296 24.3099 9.62264C26.379 9.73217 28.3853 10.362 30.1384 11.4523C31.8915 12.5426 33.3333 14.0572 34.3268 15.8523C35.4047 17.7195 35.9887 19.8247 36.0247 21.9735C36.0607 24.1224 35.5477 26.2455 34.5329 28.1469L29.4933 37.6H24.3099V30.9194C24.7388 30.9818 25.1715 31.0155 25.6049 31.0203C26.3043 31.0534 27.0034 30.948 27.6609 30.7103C28.3184 30.4727 28.9212 30.1075 29.4335 29.6363C31.9699 27.1848 31.0442 22.4443 31.0036 22.2434C30.9831 22.1402 30.9421 22.042 30.883 21.9545C30.8238 21.867 30.7478 21.7919 30.6591 21.7336C30.5705 21.6753 30.471 21.6349 30.3664 21.6147C30.2619 21.5945 30.1543 21.5949 30.05 21.616C26.5662 22.304 24.5102 25.5655 23.4996 27.7471C22.489 25.5655 20.433 22.3036 16.9492 21.616C16.8449 21.595 16.7373 21.5946 16.6328 21.6148C16.5283 21.6351 16.4288 21.6755 16.3402 21.7338C16.2516 21.7921 16.1755 21.8671 16.1164 21.9546C16.0572 22.0421 16.0162 22.1402 15.9956 22.2434C15.9551 22.4442 15.0295 27.1848 17.5657 29.6363C18.078 30.1075 18.6807 30.4727 19.3382 30.7104C19.9958 30.9481 20.6948 31.0535 21.3943 31.0203C21.8277 31.0155 22.2604 30.9818 22.6893 30.9194V37.6H17.5059L12.4663 28.1469C11.4515 26.2455 10.9385 24.1224 10.9745 21.9735C11.0105 19.8247 11.5945 17.7195 12.6724 15.8523ZM24.5763 29.3492C25.1891 27.7828 26.7707 24.4844 29.5356 23.425C29.6697 24.8867 29.5819 27.2531 28.2999 28.493C27.4836 29.28 26.2338 29.5687 24.5763 29.3492ZM22.4223 29.3492C20.7699 29.5695 19.5176 29.2813 18.7017 28.4953C17.3367 27.1789 17.3478 24.7313 17.4684 23.4266C20.2301 24.488 21.8097 27.784 22.4223 29.3492ZM25.1203 46.4H21.8789C20.9454 46.3987 20.0408 46.0798 19.3177 45.4969C18.5946 44.914 18.0971 44.1028 17.9092 43.2H29.09C28.9021 44.1028 28.4046 44.914 27.6815 45.4969C26.9584 46.0798 26.0538 46.3987 25.1203 46.4Z" fill="#ED1B24"/>
</svg>
