<svg width="38" height="44" viewBox="0 0 38 44" fill="none" xmlns="http://www.w3.org/2000/svg">
<path d="M22 1.375C17.9208 1.375 13.9331 2.58464 10.5414 4.85094C7.14961 7.11724 4.50605 10.3384 2.94499 14.1072C1.38394 17.8759 0.975493 22.0229 1.77131 26.0237C2.56713 30.0246 4.53147 33.6996 7.41593 36.5841C10.3004 39.4685 13.9754 41.4329 17.9763 42.2287C21.9771 43.0245 26.1241 42.6161 29.8929 41.055C33.6616 39.494 36.8828 36.8504 39.1491 33.4586C41.4154 30.0669 42.625 26.0792 42.625 22C42.6188 16.5318 40.4439 11.2894 36.5773 7.42276C32.7107 3.55616 27.4682 1.38119 22 1.375ZM22 2.75C24.5073 2.75 26.7747 6.05 28.1593 11H15.8407C17.2253 6.05 19.4927 2.75 22 2.75ZM14.4444 21.3125C14.4758 18.3048 14.8258 15.3089 15.4887 12.375H28.5113C29.1742 15.3089 29.5242 18.3048 29.5556 21.3125H14.4444ZM29.5556 22.6875C29.5242 25.6952 29.1742 28.6911 28.5113 31.625H15.4887C14.8258 28.6911 14.4758 25.6952 14.4444 22.6875H29.5556ZM18.3652 3.09856C16.7152 4.75338 15.3402 7.51369 14.4018 11H6.21638C9.08467 6.88684 13.4423 4.05268 18.3652 3.09856ZM5.33982 12.375H14.0642C13.4282 15.3124 13.0951 18.3072 13.0701 21.3125H2.7672C2.87598 18.167 3.75966 15.097 5.33982 12.375ZM2.7672 22.6875H13.0701C13.0951 25.6928 13.4282 28.6876 14.0642 31.625H5.33982C3.75966 28.903 2.87598 25.833 2.7672 22.6875ZM6.21638 33H14.4018C15.3374 36.4863 16.7138 39.2466 18.3652 40.9014C13.4423 39.9473 9.08467 37.1132 6.21638 33ZM22 41.25C19.4927 41.25 17.2253 37.95 15.8407 33H28.1593C26.7747 37.95 24.5073 41.25 22 41.25ZM25.6348 40.9014C27.2848 39.2466 28.6598 36.4863 29.5983 33H37.7836C34.9154 37.1132 30.5577 39.9473 25.6348 40.9014ZM38.6602 31.625H29.9358C30.5718 28.6876 30.9049 25.6928 30.9299 22.6875H41.2328C41.124 25.833 40.2404 28.903 38.6602 31.625ZM41.2328 21.3125H30.9299C30.9049 18.3072 30.5718 15.3124 29.9358 12.375H38.6602C40.2404 15.097 41.124 18.167 41.2328 21.3125ZM29.5983 11C28.6626 7.51369 27.2862 4.75338 25.6348 3.09856C30.5577 4.05268 34.9154 6.88684 37.7836 11H29.5983Z" fill="#ED1B24"/>
</svg>
