<svg width="42" height="42" viewBox="0 0 42 42" fill="none" xmlns="http://www.w3.org/2000/svg">
<path d="M21 0.375C16.9208 0.375 12.9331 1.58464 9.54137 3.85094C6.14961 6.11724 3.50605 9.33843 1.94499 13.1072C0.383937 16.8759 -0.0245073 21.0229 0.771313 25.0237C1.56713 29.0246 3.53147 32.6996 6.41593 35.5841C9.30039 38.4685 12.9754 40.4329 16.9763 41.2287C20.9771 42.0245 25.1241 41.6161 28.8929 40.055C32.6616 38.494 35.8828 35.8504 38.1491 32.4586C40.4154 29.0669 41.625 25.0792 41.625 21C41.6188 15.5318 39.4439 10.2894 35.5773 6.42276C31.7107 2.55616 26.4682 0.381187 21 0.375ZM21 1.75C23.5073 1.75 25.7747 5.05 27.1593 10H14.8407C16.2253 5.05 18.4927 1.75 21 1.75ZM13.4444 20.3125C13.4758 17.3048 13.8258 14.3089 14.4887 11.375H27.5113C28.1742 14.3089 28.5242 17.3048 28.5556 20.3125H13.4444ZM28.5556 21.6875C28.5242 24.6952 28.1742 27.6911 27.5113 30.625H14.4887C13.8258 27.6911 13.4758 24.6952 13.4444 21.6875H28.5556ZM17.3652 2.09856C15.7152 3.75338 14.3402 6.51369 13.4018 10H5.21638C8.08467 5.88684 12.4423 3.05268 17.3652 2.09856ZM4.33982 11.375H13.0642C12.4282 14.3124 12.0951 17.3072 12.0701 20.3125H1.7672C1.87598 17.167 2.75966 14.097 4.33982 11.375ZM1.7672 21.6875H12.0701C12.0951 24.6928 12.4282 27.6876 13.0642 30.625H4.33982C2.75966 27.903 1.87598 24.833 1.7672 21.6875ZM5.21638 32H13.4018C14.3374 35.4863 15.7138 38.2466 17.3652 39.9014C12.4423 38.9473 8.08467 36.1132 5.21638 32ZM21 40.25C18.4927 40.25 16.2253 36.95 14.8407 32H27.1593C25.7747 36.95 23.5073 40.25 21 40.25ZM24.6348 39.9014C26.2848 38.2466 27.6598 35.4863 28.5983 32H36.7836C33.9154 36.1132 29.5577 38.9473 24.6348 39.9014ZM37.6602 30.625H28.9358C29.5718 27.6876 29.9049 24.6928 29.9299 21.6875H40.2328C40.124 24.833 39.2404 27.903 37.6602 30.625ZM40.2328 20.3125H29.9299C29.9049 17.3072 29.5718 14.3124 28.9358 11.375H37.6602C39.2404 14.097 40.124 17.167 40.2328 20.3125ZM28.5983 10C27.6626 6.51369 26.2862 3.75338 24.6348 2.09856C29.5577 3.05268 33.9154 5.88684 36.7836 10H28.5983Z" fill="#ED1B24"/>
</svg>
