<svg width="40" height="52" viewBox="0 0 40 52" fill="none" xmlns="http://www.w3.org/2000/svg">
<path fill-rule="evenodd" clip-rule="evenodd" d="M23.9167 51.3959H15.75H1.16667C0.525 51.3959 0 50.8452 0 50.1722V1.22371C0 0.55067 0.525 0 1.16667 0H38.5C39.1417 0 39.6667 0.55067 39.6667 1.22371V50.1722C39.6667 50.8452 39.1417 51.3959 38.5 51.3959H23.9167ZM16.9167 48.9485H22.75V40.3825H16.9167V48.9485ZM37.3333 2.44742H2.33333V48.9485H14.5833V39.1588C14.5833 38.4857 15.1083 37.9351 15.75 37.9351H23.9167C24.5583 37.9351 25.0833 38.4857 25.0833 39.1588V48.9485H37.3333V2.44742ZM7.00065 6.11846H11.6673C12.309 6.11846 12.834 6.66913 12.834 7.34218V12.237C12.834 12.9101 12.309 13.4607 11.6673 13.4607H7.00065C6.35898 13.4607 5.83398 12.9101 5.83398 12.237V7.34218C5.83398 6.66913 6.35898 6.11846 7.00065 6.11846ZM8.16732 11.0133H10.5007V8.56589H8.16732V11.0133ZM22.1673 13.4607H17.5007C16.859 13.4607 16.334 12.9101 16.334 12.237V7.34218C16.334 6.66913 16.859 6.11846 17.5007 6.11846H22.1673C22.809 6.11846 23.334 6.66913 23.334 7.34218V12.237C23.334 12.9101 22.809 13.4607 22.1673 13.4607ZM21.0007 8.56589H18.6673V11.0133H21.0007V8.56589ZM32.6673 13.4607H28.0007C27.359 13.4607 26.834 12.9101 26.834 12.237V7.34218C26.834 6.66913 27.359 6.11846 28.0007 6.11846H32.6673C33.309 6.11846 33.834 6.66913 33.834 7.34218V12.237C33.834 12.9101 33.309 13.4607 32.6673 13.4607ZM31.5007 8.56589H29.1673V11.0133H31.5007V8.56589ZM7.00065 15.9082H11.6673C12.309 15.9082 12.834 16.4588 12.834 17.1319V22.0267C12.834 22.6998 12.309 23.2504 11.6673 23.2504H7.00065C6.35898 23.2504 5.83398 22.6998 5.83398 22.0267V17.1319C5.83398 16.4588 6.35898 15.9082 7.00065 15.9082ZM8.16732 20.803H10.5007V18.3556H8.16732V20.803ZM22.1673 23.2504H17.5007C16.859 23.2504 16.334 22.6998 16.334 22.0267V17.1319C16.334 16.4588 16.859 15.9082 17.5007 15.9082H22.1673C22.809 15.9082 23.334 16.4588 23.334 17.1319V22.0267C23.334 22.6998 22.809 23.2504 22.1673 23.2504ZM21.0007 18.3556H18.6673V20.803H21.0007V18.3556ZM32.6673 23.2504H28.0007C27.359 23.2504 26.834 22.6998 26.834 22.0267V17.1319C26.834 16.4588 27.359 15.9082 28.0007 15.9082H32.6673C33.309 15.9082 33.834 16.4588 33.834 17.1319V22.0267C33.834 22.6998 33.309 23.2504 32.6673 23.2504ZM31.5007 18.3556H29.1673V20.803H31.5007V18.3556ZM7.00065 25.6979H11.6673C12.309 25.6979 12.834 26.2485 12.834 26.9216V31.8164C12.834 32.4895 12.309 33.0401 11.6673 33.0401H7.00065C6.35898 33.0401 5.83398 32.4895 5.83398 31.8164V26.9216C5.83398 26.2485 6.35898 25.6979 7.00065 25.6979ZM8.16732 30.5927H10.5007V28.1453H8.16732V30.5927ZM22.1673 33.0401H17.5007C16.859 33.0401 16.334 32.4895 16.334 31.8164V26.9216C16.334 26.2485 16.859 25.6979 17.5007 25.6979H22.1673C22.809 25.6979 23.334 26.2485 23.334 26.9216V31.8164C23.334 32.4895 22.809 33.0401 22.1673 33.0401ZM21.0007 28.1453H18.6673V30.5927H21.0007V28.1453ZM32.6673 33.0401H28.0007C27.359 33.0401 26.834 32.4895 26.834 31.8164V26.9216C26.834 26.2485 27.359 25.6979 28.0007 25.6979H32.6673C33.309 25.6979 33.834 26.2485 33.834 26.9216V31.8164C33.834 32.4895 33.309 33.0401 32.6673 33.0401ZM31.5007 28.1453H29.1673V30.5927H31.5007V28.1453Z" fill="#ED1B24"/>
</svg>
