<svg width="54" height="48" viewBox="0 0 54 48" fill="none" xmlns="http://www.w3.org/2000/svg">
<path d="M25.5355 41.2922V38.5597C25.5355 37.8768 25.2664 37.222 24.7876 36.7391C24.3087 36.2563 23.6592 35.985 22.9819 35.985H4.25591C3.57867 35.985 2.92916 36.2563 2.45028 36.7391C1.9714 37.222 1.70237 37.8768 1.70237 38.5597V41.2922C1.2062 41.4691 0.776356 41.7962 0.47163 42.2288C0.166903 42.6614 0.00218155 43.1783 0 43.7089L0 47.1418C0 47.3694 0.0896779 47.5877 0.249306 47.7486C0.408933 47.9096 0.625435 48 0.851183 48H26.3867C26.6124 48 26.8289 47.9096 26.9885 47.7486C27.1482 47.5877 27.2378 47.3694 27.2378 47.1418V43.7089C27.2357 43.1783 27.0709 42.6614 26.7662 42.2288C26.4615 41.7962 26.0316 41.4691 25.5355 41.2922ZM3.40473 38.5597C3.40473 38.3321 3.49441 38.1138 3.65404 37.9528C3.81366 37.7919 4.03016 37.7015 4.25591 37.7015H22.9819C23.2077 37.7015 23.4242 37.7919 23.5838 37.9528C23.7434 38.1138 23.8331 38.3321 23.8331 38.5597V41.1343H3.40473V38.5597ZM25.5355 46.2836H1.70237V43.7089C1.70237 43.4813 1.79204 43.263 1.95167 43.1021C2.1113 42.9411 2.3278 42.8507 2.55355 42.8507H24.6843C24.91 42.8507 25.1265 42.9411 25.2862 43.1021C25.4458 43.263 25.5355 43.4813 25.5355 43.7089V46.2836ZM52.9606 42.0715L31.4938 20.4325L35.4398 16.4538C35.7231 16.5342 36.0155 16.5775 36.3097 16.5826C36.9827 16.5821 37.6404 16.3805 38.1998 16.0034C38.7592 15.6263 39.1952 15.0905 39.4528 14.4636C39.7104 13.8368 39.7779 13.1471 39.6469 12.4816C39.516 11.816 39.1923 11.2046 38.7169 10.7244L29.0934 1.01287C28.5661 0.476381 27.8775 0.130937 27.135 0.0304274C26.3926 -0.0700825 25.638 0.0799935 24.989 0.457245C24.34 0.834497 23.833 1.41771 23.5473 2.11591C23.2615 2.81412 23.213 3.58805 23.4092 4.31699L10.7028 17.1301C9.98013 16.9338 9.21341 16.9838 8.52186 17.2723C7.83032 17.5608 7.25272 18.0717 6.87892 18.7254C6.50513 19.3791 6.35608 20.1391 6.45497 20.887C6.55385 21.635 6.89513 22.3291 7.42572 22.8612L17.056 32.5711C17.6945 33.2146 18.5603 33.5761 19.4631 33.5761C20.366 33.5761 21.2318 33.2146 21.8703 32.5711C22.2901 32.1454 22.5915 31.6158 22.7442 31.0356C22.8969 30.4553 22.8955 29.8448 22.7402 29.2652L26.6863 25.2866L48.1463 46.9255C48.4604 47.2534 48.8361 47.5149 49.2514 47.6948C49.6668 47.8747 50.1136 47.9694 50.5657 47.9734C51.0178 47.9774 51.4661 47.8905 51.8845 47.7179C52.303 47.5453 52.6831 47.2904 53.0028 46.9681C53.3225 46.6457 53.5753 46.2625 53.7465 45.8406C53.9177 45.4187 54.0038 44.9667 53.9999 44.5108C53.9959 44.055 53.902 43.6046 53.7236 43.1858C53.5451 42.7669 53.2858 42.3881 52.9606 42.0715ZM25.4827 2.2281C25.8019 1.90632 26.2349 1.72556 26.6863 1.72556C27.1377 1.72556 27.5706 1.90632 27.8898 2.2281L37.5201 11.9379C37.8393 12.2598 38.0186 12.6963 38.0186 13.1514C38.0186 13.6066 37.8393 14.0431 37.5201 14.3649C37.1956 14.6771 36.7642 14.8513 36.3157 14.8513C35.8672 14.8513 35.4358 14.6771 35.1113 14.3649L30.3021 9.50918L25.4827 4.65513C25.1636 4.33325 24.9843 3.89675 24.9843 3.44161C24.9843 2.98648 25.1636 2.54998 25.4827 2.2281ZM20.6684 31.3507C20.3478 31.6705 19.915 31.8499 19.464 31.8499C19.013 31.8499 18.5802 31.6705 18.2596 31.3507L8.62929 21.646C8.31008 21.3239 8.13084 20.8872 8.131 20.4319C8.13116 19.9766 8.31071 19.54 8.63014 19.2181C8.94957 18.8963 9.38273 18.7156 9.83431 18.7157C10.2859 18.7159 10.7189 18.8969 11.0381 19.219L20.6684 28.9271C20.8267 29.0865 20.9523 29.2758 21.0379 29.4842C21.1236 29.6925 21.1677 29.9159 21.1677 30.1415C21.1677 30.367 21.1236 30.5904 21.0379 30.7987C20.9523 31.0071 20.8267 31.1964 20.6684 31.3558V31.3507ZM21.872 27.7084L12.24 18.0055L24.2774 5.86864L33.906 15.5785L21.872 27.7084ZM51.7519 45.712C51.4276 46.0241 50.9966 46.1982 50.5483 46.1982C50.1001 46.1982 49.669 46.0241 49.3448 45.712L27.8898 24.0748L30.3021 21.646L51.7519 43.285C52.071 43.6069 52.2503 44.0434 52.2503 44.4985C52.2503 44.9536 52.071 45.3901 51.7519 45.712Z" fill="#ED1B24"/>
</svg>
