<svg width="64" height="64" viewBox="0 0 64 64" fill="none" xmlns="http://www.w3.org/2000/svg">
<path d="M25.7352 33.8186L20.5314 28.6148C20.2877 28.3705 20.2877 27.9748 20.5314 27.7311L25.7352 22.5273L26.6189 23.4111L21.8571 28.173L26.6189 32.9348L25.7352 33.8186ZM38.2639 33.8186L37.3802 32.9348L42.1421 28.173L37.3802 23.4111L38.2639 22.5273L43.4677 27.7311C43.5852 27.8486 43.6508 28.0073 43.6508 28.173C43.6508 28.3386 43.5852 28.498 43.4677 28.6148L38.2639 33.8186Z" fill="#ED1B24"/>
<path d="M33.3428 22.5358L29.4814 33.396L30.6592 33.8148L34.5206 22.9545L33.3428 22.5358Z" fill="#ED1B24"/>
<path d="M51.8876 48.7084H12.1126C10.0613 48.7084 8.39258 47.0396 8.39258 44.9884V17.4759C8.39258 15.4246 10.0613 13.7559 12.1126 13.7559H51.8876C53.9388 13.7559 55.6076 15.4246 55.6076 17.4759V44.9884C55.6076 47.0396 53.9388 48.7084 51.8876 48.7084ZM12.1126 15.0059C10.7507 15.0059 9.64258 16.114 9.64258 17.4759V44.9884C9.64258 46.3502 10.7507 47.4584 12.1126 47.4584H51.8876C53.2495 47.4584 54.3576 46.3502 54.3576 44.9884V17.4759C54.3576 16.114 53.2495 15.0059 51.8876 15.0059H12.1126Z" fill="#ED1B24"/>
<path d="M36.6677 55.6699H27.332C26.987 55.6699 26.707 55.3899 26.707 55.0449V48.083C26.707 47.738 26.987 47.458 27.332 47.458H36.6677C37.0127 47.458 37.2927 47.738 37.2927 48.083V55.0449C37.2927 55.3899 37.0127 55.6699 36.6677 55.6699ZM27.957 54.4199H36.0427V48.708H27.957V54.4199Z" fill="#ED1B24"/>
<path d="M54.9826 40.8232H9.01758V42.0732H54.9826V40.8232Z" fill="#ED1B24"/>
<path d="M41.2446 54.4199H22.7559V55.6699H41.2446V54.4199Z" fill="#ED1B24"/>
</svg>
