<svg width="48" height="43" viewBox="0 0 48 43" fill="none" xmlns="http://www.w3.org/2000/svg">
<path d="M17.7362 20.8186L12.5324 15.6148C12.2887 15.3705 12.2887 14.9748 12.5324 14.7311L17.7362 9.52734L18.6199 10.4111L13.858 15.173L18.6199 19.9348L17.7362 20.8186ZM30.2649 20.8186L29.3812 19.9348L34.143 15.173L29.3812 10.4111L30.2649 9.52734L35.4687 14.7311C35.5862 14.8486 35.6518 15.0073 35.6518 15.173C35.6518 15.3386 35.5862 15.498 35.4687 15.6148L30.2649 20.8186Z" fill="#ED1B24"/>
<path d="M25.3419 9.5353L21.4805 20.3955L22.6582 20.8143L26.5196 9.95406L25.3419 9.5353Z" fill="#ED1B24"/>
<path d="M43.8876 35.7084H4.11258C2.06133 35.7084 0.392578 34.0396 0.392578 31.9884V4.47586C0.392578 2.42461 2.06133 0.755859 4.11258 0.755859H43.8876C45.9388 0.755859 47.6076 2.42461 47.6076 4.47586V31.9884C47.6076 34.0396 45.9388 35.7084 43.8876 35.7084ZM4.11258 2.00586C2.7507 2.00586 1.64258 3.11398 1.64258 4.47586V31.9884C1.64258 33.3502 2.7507 34.4584 4.11258 34.4584H43.8876C45.2495 34.4584 46.3576 33.3502 46.3576 31.9884V4.47586C46.3576 3.11398 45.2495 2.00586 43.8876 2.00586H4.11258Z" fill="#ED1B24"/>
<path d="M28.6677 42.6699H19.332C18.987 42.6699 18.707 42.3899 18.707 42.0449V35.083C18.707 34.738 18.987 34.458 19.332 34.458H28.6677C29.0127 34.458 29.2927 34.738 29.2927 35.083V42.0449C29.2927 42.3899 29.0127 42.6699 28.6677 42.6699ZM19.957 41.4199H28.0427V35.708H19.957V41.4199Z" fill="#ED1B24"/>
<path d="M46.9826 27.8232H1.01758V29.0732H46.9826V27.8232Z" fill="#ED1B24"/>
<path d="M33.2446 41.4199H14.7559V42.6699H33.2446V41.4199Z" fill="#ED1B24"/>
</svg>
